<?xml version="1.0" standalone="no"?>
<!DOCTYPE svg PUBLIC "-//W3C//DTD SVG 1.1//EN" "http://www.w3.org/Graphics/SVG/1.1/DTD/svg11.dtd" >
<svg xmlns="http://www.w3.org/2000/svg" xmlns:xlink="http://www.w3.org/1999/xlink" version="1.1">
<metadata>
Created by FontForge 20161003 at Thu Sep  5 11:32:13 2019
 By www-data
copyright missing
</metadata>
<defs>
<font id="Gaslight" horiz-adv-x="773" >
  <font-face 
    font-family="Gaslight"
    font-weight="400"
    font-stretch="normal"
    units-per-em="1000"
    panose-1="0 0 5 0 0 0 0 0 0 0"
    ascent="771"
    descent="-229"
    x-height="490"
    cap-height="703"
    bbox="-24 -227 1186 940"
    underline-thickness="50"
    underline-position="-150"
    unicode-range="U+0020-2265"
  />
<missing-glyph horiz-adv-x="500" 
d="M500 0h-500v700h500v-700zM80 650l170 -255l170 255h-340zM450 605l-170 -255l170 -255v510zM250 305l-170 -255h340zM220 350l-170 255v-510z" />
    <glyph glyph-name=".notdef" horiz-adv-x="500" 
d="M500 0h-500v700h500v-700zM80 650l170 -255l170 255h-340zM450 605l-170 -255l170 -255v510zM250 305l-170 -255h340zM220 350l-170 255v-510z" />
    <glyph glyph-name=".null" horiz-adv-x="0" 
 />
    <glyph glyph-name="nonmarkingreturn" horiz-adv-x="333" 
 />
    <glyph glyph-name="space" unicode=" " horiz-adv-x="280" 
 />
    <glyph glyph-name="exclam" unicode="!" horiz-adv-x="271" 
d="M76 697l111 6q-3 -183 -5 -273q-6 -160 -19 -250l-58 -2q-15 73 -23 250q-3 100 -4 144q-2 122 -2 125zM93 89q17 18 43 18t42 -18q17 -17 17 -40t-17 -41q-16 -17 -42 -17t-43 17q-17 18 -17 41t17 40z" />
    <glyph glyph-name="quotedbl" unicode="&#x22;" horiz-adv-x="382" 
d="M158 752q-4 -87 -25 -176l-63 3q-2 87 -17 168zM323 752q-4 -87 -25 -176l-63 3q-2 87 -17 168z" />
    <glyph glyph-name="numbersign" unicode="#" horiz-adv-x="669" 
d="M505 509h128l-3 -67q-39 2 -136 5l-34 -182h130l-3 -67q-40 2 -138 5l-12 -63q-16 -86 -23 -140h-70q2 7 29 140l12 65q-118 3 -155 4l-13 -69q-16 -86 -23 -140h-70q2 7 29 140l13 69l-130 1l3 55h138l36 188l-134 1l3 55h142l12 65q18 92 19 123l70 5q-14 -55 -28 -130
l-12 -63h159l12 65q18 92 19 123l70 5q-14 -55 -28 -130zM240 265h157l35 184q-78 3 -157 3z" />
    <glyph glyph-name="dollar" unicode="$" horiz-adv-x="648" 
d="M393 606l-28 -202q102 -17 156 -47q76 -42 76 -136q0 -87 -71 -140q-70 -51 -188 -51l-25 1q-6 -53 -6 -93l-75 10l18 91q-134 28 -199 115l32 49q57 -78 175 -104l31 227q-91 17 -141 46q-64 39 -64 123q0 78 63.5 125.5t171.5 47.5h17q6 54 6 76l72 -4q-4 -16 -14 -80
q49 -10 87.5 -30t53.5 -37l-25 -44q-45 41 -123 57zM170 504q0 -38 31 -58t100 -32l27 198q-87 -2 -122 -34q-36 -33 -36 -74zM353 317l-31 -226h8q91 0 136 31t45 83q0 49 -39 74t-119 38z" />
    <glyph glyph-name="percent" unicode="%" horiz-adv-x="786" 
d="M360 561q0 -62 -46 -107q-45 -45 -111 -45t-112 44q-45 43 -45 106q0 61 45 104q46 44 112 44q68 0 112 -43q45 -42 45 -103zM601 707l89 -14q-72 -89 -96 -120l-340 -454q-62 -83 -87 -123l-86 21q47 55 101 126l338 449q47 63 81 115zM200 651q-35 0 -54.5 -25
t-19.5 -65q0 -43 22 -69.5t58 -26.5q34 0 54 26.5t20 67.5q0 43 -21.5 67.5t-58.5 24.5zM740 146q0 -62 -46 -107q-45 -45 -111 -45t-112 44q-45 44 -45 106q0 60 45 104q46 44 112 44q68 0 112 -43q45 -42 45 -103zM580 236q-35 0 -54.5 -25t-19.5 -65q0 -43 22 -69.5
t58 -26.5q34 0 54 26.5t20 67.5q0 43 -21.5 67.5t-58.5 24.5z" />
    <glyph glyph-name="ampersand" unicode="&#x26;" horiz-adv-x="743" 
d="M697 28l-92 -30q-18 41 -44 75q-107 -87 -249 -87q-124 0 -195 53t-71 148q0 92 60 146q51 46 124 79q-48 70 -48 141q0 70 46 115q46 46 124 46q71 0 114.5 -38t43.5 -95q0 -64 -37 -105q-38 -42 -116 -88q1 -2 8 -9q27 -28 103 -94q70 -59 114 -103q39 45 60 90l49 -40
l-25 -39q-21 -32 -41 -57q49 -58 72 -108zM262 560q0 -54 44 -115l1 1q27 13 63 32q28 17 49.5 43.5t21.5 52.5q0 37 -23.5 61.5t-61.5 24.5q-37 0 -65.5 -29.5t-28.5 -70.5zM310 58q124 0 210 65q-38 41 -118 113q-82 74 -92 84l-28 29q-72 -36 -104 -69.5t-32 -84.5
q0 -61 46 -99t118 -38z" />
    <glyph glyph-name="quotesingle" unicode="'" horiz-adv-x="217" 
d="M161 752q-4 -87 -25 -176l-63 3q-2 87 -17 168z" />
    <glyph glyph-name="parenleft" unicode="(" horiz-adv-x="405" 
d="M322 765l47 -28q-110 -104 -161 -214.5t-51 -249.5q0 -128 52.5 -235t158.5 -213l-46 -23q-256 189 -256 478q0 158 63 271q66 115 193 214z" />
    <glyph glyph-name="parenright" unicode=")" horiz-adv-x="405" 
d="M36 737l47 28q128 -100 192 -214q64 -112 64 -271q0 -289 -256 -478l-46 23q106 106 158.5 213t52.5 235q0 139 -51 249.5t-161 214.5z" />
    <glyph glyph-name="asterisk" unicode="*" horiz-adv-x="352" 
d="M210 627v-1q31 -37 69 -65l-59 -46l-25 46l-20 40h-1q-29 -53 -40 -86l-62 42l69 70q-48 10 -95 12l20 72l88 -44q-4 52 -18 94l75 3q-1 -6 -3.5 -23t-3.5 -26l-7 -48q39 15 84 46l25 -70q-29 -5 -49 -8q-28 -4 -47 -8z" />
    <glyph glyph-name="plus" unicode="+" horiz-adv-x="586" 
d="M327 337h203l-3 -67q-103 5 -199 8q0 -104 3 -208l-67 2q3 65 5 207q-123 3 -213 3l1 55h213q0 41 0.5 89.5t1 74t0.5 38.5l55 3v-205z" />
    <glyph glyph-name="comma" unicode="," horiz-adv-x="245" 
d="M123 107q27 0 44 -18.5t17 -46.5q0 -92 -84 -125l-23 32q35 12 31 46q-19 3 -32 19t-13 35q0 24 17 41t43 17z" />
    <glyph glyph-name="hyphen" unicode="-" horiz-adv-x="456" 
d="M57 291h343l-3 -67q-155 11 -341 12z" />
    <glyph glyph-name="period" unicode="." horiz-adv-x="245" 
d="M80 89q17 18 43 18t42 -18q17 -17 17 -40t-17 -41q-16 -17 -42 -17t-43 17q-17 18 -17 41t17 40z" />
    <glyph glyph-name="slash" unicode="/" horiz-adv-x="444" 
d="M319 720l89 4q-38 -86 -59 -141l-176 -464q-37 -97 -50 -142h-87q28 60 62 149l175 461q36 99 46 133z" />
    <glyph glyph-name="zero" unicode="0" horiz-adv-x="811" 
d="M405 714q155 0 253 -101q97 -100 97 -253q0 -168 -97 -271q-98 -104 -253 -104q-157 0 -253 99t-96 261q0 165 97 266q97 103 252 103zM402 657q-116 0 -181 -83q-64 -82 -61 -221q3 -145 73 -227q71 -83 175 -83q118 0 180 84q62 85 60 216q-1 149 -66 231.5t-180 82.5z
" />
    <glyph glyph-name="one" unicode="1" horiz-adv-x="382" 
d="M286 0h-136q23 69 23 149v409q-52 -43 -121 -39l-4 46q94 33 159 132l61 8q-2 -66 -2 -149v-406q0 -87 20 -150z" />
    <glyph glyph-name="two" unicode="2" horiz-adv-x="706" 
d="M142 60h260q73 0 149 10q79 10 99 30l-14 -106q-68 6 -195 6h-375q-10 43 -5 88.5t21.5 86.5t58.5 79.5t107 68.5q57 25 82 34q51 19 81 33q38 17 62 32q63 36 63 97q0 56 -46 91.5t-127 35.5q-145 0 -221 -115l-36 40q25 55 95 99q69 45 168 45q122 0 193 -59
q72 -58 72 -144q0 -57 -27 -100t-70.5 -69t-96 -47t-105 -41t-96 -43.5t-70.5 -62t-27 -89.5z" />
    <glyph glyph-name="three" unicode="3" horiz-adv-x="710" 
d="M344 430q101 8 200 -39q51 -24 82 -69.5t31 -102.5q0 -98 -86 -166q-85 -67 -231 -67q-108 0 -186.5 48.5t-122.5 128.5l47 36q85 -142 253 -142q99 0 160 46q63 47 63 117q0 52 -45 90q-88 75 -257 44l-30 54q91 90 252 223l-134 -1q-122 -1 -208 -25l23 99
q55 -4 129 -4h259l23 -82q-136 -100 -222 -188z" />
    <glyph glyph-name="four" unicode="4" horiz-adv-x="661" 
d="M610 198h-68v-58q0 -80 4 -140h-102q5 68 5 135v63h-80q-166 0 -299 -10l-23 82q245 200 430 428l65 5v-444h68v-61zM131 259h318v322q-150 -177 -318 -322z" />
    <glyph glyph-name="five" unicode="5" horiz-adv-x="708" 
d="M356 441q137 0 216 -61q80 -62 80 -153q0 -107 -79 -174q-77 -67 -226 -67q-79 0 -146 27q-62 26 -98 54.5t-67 68.5l36 38q96 -112 268 -112q104 0 159.5 44.5t55.5 113.5q0 66 -56 108t-150 42q-54 0 -107.5 -17t-85.5 -42l-70 53q26 54 99 336h214q74 0 129 4l20 -87
q-87 25 -208 25h-84q-27 -122 -65 -240q79 39 165 39z" />
    <glyph glyph-name="six" unicode="6" horiz-adv-x="726" 
d="M403 715q125 0 190 -48l-24 -54q-53 41 -143 41q-129 0 -197 -80q-67 -79 -81 -214q36 50 101 77.5t145 27.5q120 0 199 -63q79 -61 79 -160q0 -108 -79 -183q-80 -74 -209 -74q-146 0 -239 94q-92 95 -92 257q0 160 96 270q96 109 254 109zM381 399q-91 0 -149 -48
q-58 -46 -58 -122t56 -127q56 -50 150 -50q84 0 139 50q55 51 55 134q0 75 -52 119t-141 44z" />
    <glyph glyph-name="seven" unicode="7" horiz-adv-x="702" 
d="M219 700h408l19 -81q-126 -99 -197 -222q-69 -120 -86 -290q-6 -64 0 -107h-135q8 30 18 101q22 153 101 297q77 140 212 239h-202q-129 0 -188 -7q-61 -6 -113 -32l18 106q60 -4 145 -4z" />
    <glyph glyph-name="eight" unicode="8" horiz-adv-x="718" 
d="M496 397q171 -49 171 -184q0 -105 -84 -166q-85 -62 -226 -62q-129 0 -218 60q-88 61 -88 159q0 73 41.5 126t109.5 77q-59 50 -59 124q0 79 62 132q61 52 155 52q103 0 160 -47t57 -123q0 -103 -81 -148zM368 654q-57 0 -95 -35q-37 -34 -37 -79q0 -44 42.5 -73.5
t128.5 -48.5q49 14 76.5 46t27.5 76q0 50 -38 82t-105 32zM349 57q99 0 156.5 41t57.5 104q0 53 -48.5 88t-159.5 55q-57 11 -91 26q-65 -18 -99.5 -58.5t-34.5 -98.5q0 -70 63 -114q62 -43 156 -43z" />
    <glyph glyph-name="nine" unicode="9" horiz-adv-x="729" 
d="M344 715q146 0 235 -93q89 -92 89 -258t-94 -272q-95 -107 -252 -107q-151 0 -211 68l24 58q65 -62 174 -62q122 0 187 80t77 212q-27 -50 -90 -79t-144 -29q-119 0 -198 64q-80 65 -80 164q0 110 77 182q76 72 206 72zM348 655q-87 0 -140 -56q-52 -55 -52 -130
q0 -76 55 -122t142 -46q86 0 142 46q58 46 58 124q0 76 -54 130t-151 54z" />
    <glyph glyph-name="colon" unicode=":" horiz-adv-x="245" 
d="M80 477q17 18 43 18t42 -18q17 -17 17 -40t-17 -41q-16 -17 -42 -17t-43 17q-17 18 -17 41t17 40zM80 89q17 18 43 18t42 -18q17 -17 17 -40t-17 -41q-16 -17 -42 -17t-43 17q-17 18 -17 41t17 40z" />
    <glyph glyph-name="semicolon" unicode=";" horiz-adv-x="247" 
d="M80 477q17 18 43 18t42 -18q17 -17 17 -40t-17 -41q-16 -17 -42 -17t-43 17q-17 18 -17 41t17 40zM123 107q27 0 44 -18.5t17 -46.5q0 -92 -84 -125l-23 32q35 12 31 46q-19 3 -32 19t-13 35q0 24 17 41t43 17z" />
    <glyph glyph-name="less" unicode="&#x3c;" horiz-adv-x="584" 
d="M509 486l19 -60q-50 -13 -97 -32q-132 -51 -254 -103l265 -108q36 -15 86 -29l-22 -59q-21 10 -80 31l-367 137l-3 59l357 128l41 15q42 15 55 21z" />
    <glyph glyph-name="equal" unicode="=" horiz-adv-x="586" 
d="M57 419h473l-3 -67q-133 9 -471 12zM57 248h473l-3 -67q-133 9 -471 12z" />
    <glyph glyph-name="greater" unicode="&#x3e;" horiz-adv-x="584" 
d="M75 486l96 -36l357 -128l-3 -59l-367 -137q-59 -21 -80 -31l-22 59q50 14 86 29l265 108q-122 52 -254 103q-47 19 -97 32z" />
    <glyph glyph-name="question" unicode="?" horiz-adv-x="610" 
d="M313 715q100 0 173 -52q73 -51 73 -144q0 -75 -42 -122q-19 -20 -46 -36q-32 -18 -109 -45q-3 -1 -7 -2.5t-6 -1.5q-47 -16 -68.5 -42t-18 -50.5t23.5 -43.5l-61 -14q-36 18 -48 55.5t7 79t65 67.5q28 17 114 48q44 18 66.5 42.5t22.5 73.5q0 52 -42.5 85t-111.5 33
q-137 0 -225 -109l-37 37q43 67 115 104t162 37zM239 89q17 18 43 18t42 -18q17 -17 17 -40t-17 -41q-16 -17 -42 -17t-43 17q-17 18 -17 41t17 40z" />
    <glyph glyph-name="at" unicode="@" horiz-adv-x="889" 
d="M456 669q172 0 277 -108q106 -107 106 -256q0 -112 -45 -173q-45 -60 -108 -60q-48 0 -81.5 22.5t-41.5 59.5q-13 -32 -53.5 -55.5t-87.5 -23.5q-82 0 -135 56q-52 56 -52 150q0 88 55 149q56 62 131 62q88 0 131 -64l8 59l67 2q-5 -58 -5 -108l1 -168q0 -80 64 -80
q37 0 61 46t24 122q0 127 -87 219q-86 90 -226 92q-144 1 -241 -93q-96 -93 -96 -231q0 -147 97 -238t241 -91q106 0 157 45l33 -46q-26 -23 -79.5 -40.5t-110.5 -17.5q-180 0 -295 106t-115 278q0 166 115 275q116 110 291 110zM432 436q-53 0 -86 -44q-32 -44 -32 -106
q0 -68 32.5 -106.5t84.5 -38.5q51 0 85 31t34 70l1 71q2 47 -36 85t-83 38z" />
    <glyph glyph-name="A" unicode="A" 
d="M442 704l42 -109l202 -466q34 -81 66 -129h-124q-13 53 -42 118l-19 43h-396l-10 -22q-39 -89 -51 -139h-89q37 66 72 148l191 440q31 70 41 107zM196 218h346l-174 389z" />
    <glyph glyph-name="B" unicode="B" horiz-adv-x="701" 
d="M452 394q193 -34 193 -179q0 -215 -312 -215h-252q6 115 6 166v414l-4 120h100h110q125 0 192 -44t67 -127q0 -90 -100 -135zM267 649h-84v-243h45h39q189 0 189 120q0 57 -47.5 90t-141.5 33zM183 355v-304h134q108 0 166 40.5t58 117.5q0 146 -245 146h-113z" />
    <glyph glyph-name="C" unicode="C" horiz-adv-x="797" 
d="M723 622l-35 -59q-84 91 -229 91q-126 0 -210 -87q-84 -86 -84 -202q0 -143 84 -229q84 -84 210 -84q80 0 137.5 27t112.5 87l32 -54q-109 -127 -297 -127q-177 0 -283 103q-105 104 -105 266q0 69 28 134t77 115.5t123 81t161 30.5q165 0 278 -93z" />
    <glyph glyph-name="D" unicode="D" horiz-adv-x="742" 
d="M87 580l-4 120h184q193 0 306 -86t113 -250q0 -178 -108 -271t-318 -93h-179q6 115 6 166v414zM183 649v-598h61q162 0 248 77.5t86 228.5q0 146 -85.5 220.5t-248.5 72.5z" />
    <glyph glyph-name="E" unicode="E" horiz-adv-x="674" 
d="M183 362v-305h257q108 0 183 32l-19 -92q-36 3 -144 3h-379q6 115 6 166v414l-4 120h329q59 0 137 5l10 -90q-52 28 -158 28h-218v-231h271l-8 -71q-106 18 -263 21z" />
    <glyph glyph-name="F" unicode="F" horiz-adv-x="615" 
d="M183 643v-231h271l-8 -71q-106 18 -263 21v-196q0 -65 4 -166h-106q6 111 6 162v418l-4 120h329q59 0 137 5l10 -90q-52 28 -158 28h-218z" />
    <glyph glyph-name="G" unicode="G" horiz-adv-x="821" 
d="M660 363l96 4q-3 -37 -3 -105l1 -131q-44 -66 -129.5 -106t-202.5 -40q-163 0 -265 104q-101 104 -101 265q0 92 44 175q42 80 130 134q85 52 195 52q131 0 226 -66l-36 -57q-74 62 -183 62q-114 0 -190 -87q-77 -88 -77 -202q0 -144 83 -230q82 -85 211 -85
q117 0 202 68q3 57 3 137q0 67 -4 108z" />
    <glyph glyph-name="H" unicode="H" horiz-adv-x="779" 
d="M692 121l6 -121h-108q6 70 6 121v179h-413v-179l6 -121h-108q6 70 6 121v484q0 60 -4 92l103 6q-3 -25 -3 -98v-248h413v248q0 60 -4 92l103 6q-3 -25 -3 -98v-484z" />
    <glyph glyph-name="I" unicode="I" horiz-adv-x="300" 
d="M98 697l103 6q-3 -25 -3 -98v-484l6 -121h-108q6 70 6 121v484q0 60 -4 92z" />
    <glyph glyph-name="J" unicode="J" horiz-adv-x="602" 
d="M423 697l103 6q-3 -26 -3 -98v-339q2 -124 -61.5 -200t-196.5 -78q-147 0 -240 119l28 51q46 -51 91.5 -71.5t106.5 -20.5q176 0 176 211v328q0 60 -4 92z" />
    <glyph glyph-name="K" unicode="K" horiz-adv-x="778" 
d="M599 227q131 -134 153 -227h-122q-9 31 -38 80q-26 45 -59 82q-78 86 -198 190l-152 -141v-90l6 -121h-108q6 70 6 121v484q0 60 -4 92l103 6q-3 -25 -3 -98v-311q153 136 306 306q47 54 77 96l116 7q-164 -175 -286 -293q129 -107 203 -183z" />
    <glyph glyph-name="L" unicode="L" horiz-adv-x="697" 
d="M183 578v-521h275q115 0 188 38l-21 -98q-36 3 -144 3h-400q6 115 6 166v414q0 71 -4 118l104 4q-4 -49 -4 -124z" />
    <glyph glyph-name="M" unicode="M" horiz-adv-x="925" 
d="M837 121l10 -121h-110q5 0 4 121l-9 427l-164 -199l-116 -149l-106 134l-180 219l-9 -432l4 -121h-83q6 58 8 121l5 242q2 54 5 242q2 65 -2 92l85 6q28 -44 63 -88l231 -284l232 282q25 30 60 84h1l62 6q-2 -74 -1 -98z" />
    <glyph glyph-name="N" unicode="N" horiz-adv-x="765" 
d="M678 605v-484l6 -121h-108l-73 103l-345 466v-448l6 -121h-83q6 70 6 121v484q0 60 -4 92l94 6q39 -60 63 -91l367 -493v2v484q0 60 -4 92l78 6q-3 -25 -3 -98z" />
    <glyph glyph-name="O" unicode="O" horiz-adv-x="831" 
d="M415 714q159 0 260 -101q100 -100 100 -253q0 -168 -100 -271q-101 -104 -260 -104q-161 0 -260 99q-99 100 -99 261q0 163 101 266q100 103 258 103zM412 657q-120 0 -188 -83q-67 -82 -64 -221q3 -145 76 -227q74 -83 182 -83q123 0 187 85t63 215q-1 148 -69 231
t-187 83z" />
    <glyph glyph-name="P" unicode="P" horiz-adv-x="654" 
d="M83 700h100h99q152 0 235 -56t83 -154q0 -111 -88.5 -171t-253.5 -60h-75v-138l6 -121h-108q6 70 6 121v488zM183 649v-338h60q254 0 254 168q0 88 -58.5 129t-177.5 41h-78z" />
    <glyph glyph-name="Q" unicode="Q" horiz-adv-x="839" 
d="M620 43q94 -81 213 -130l-106 -57q-91 60 -172 154q-65 -25 -140 -25q-161 0 -260 99q-99 100 -99 261q0 163 101 266q100 103 258 103q159 0 260 -101q100 -100 100 -253q0 -104 -40.5 -186.5t-114.5 -130.5zM160 353q3 -145 76 -227q74 -83 182 -83q123 0 187 85
t63 215q-1 148 -69 231t-187 83q-120 0 -188 -83q-67 -82 -64 -221z" />
    <glyph glyph-name="R" unicode="R" horiz-adv-x="745" 
d="M625 156q69 -71 92 -156h-120q-20 65 -71 128q-73 93 -181 136q-50 -5 -87 -5h-75v-138l6 -121h-108q6 70 6 121v488l-4 91h100h99q152 0 235 -56t83 -154q0 -152 -157 -204q104 -49 182 -130zM183 649v-338h60q254 0 254 168q0 88 -58.5 129t-177.5 41h-78z" />
    <glyph glyph-name="S" unicode="S" horiz-adv-x="739" 
d="M614 629l-28 -48q-35 30 -92 51t-119 21q-106 0 -155 -40q-49 -39 -49 -86q0 -61 75 -85q33 -12 162 -30q90 -13 154 -36q60 -22 90.5 -62.5t34.5 -109.5q0 -99 -85 -159q-86 -59 -220 -59q-97 0 -190 38q-89 39 -138 104l36 53q43 -58 122 -93q77 -34 161 -34
q106 0 160 36.5t54 95.5q0 39 -22 66q-15 20 -59 38q-14 6 -39 12q-29 7 -40 8q-8 2 -43 7l-41 7q-82 13 -141 34q-57 21 -86.5 58.5t-33.5 100.5q0 88 76 142q76 55 203 55q70 0 128 -19q89 -27 125 -66z" />
    <glyph glyph-name="T" unicode="T" horiz-adv-x="674" 
d="M465 643h-81v-522l6 -121h-108q6 70 6 121v522h-79q-106 0 -158 -28l10 90q78 -5 137 -5h278q59 0 137 5l10 -90q-52 28 -158 28z" />
    <glyph glyph-name="U" unicode="U" horiz-adv-x="769" 
d="M609 605l-4 93l83 4v-14q-3 -60 -3 -83v-286q0 -160 -82 -246q-81 -86 -218 -86q-138 0 -219 84q-81 85 -81 235v299l-4 93l103 4v-14q-3 -60 -3 -83v-287q0 -123 55.5 -188t159.5 -65q103 0 158 65.5t55 195.5v279z" />
    <glyph glyph-name="V" unicode="V" horiz-adv-x="727" 
d="M617 697l89 6q-31 -55 -69 -151l-175 -447q-36 -91 -39 -105h-15h-99q-10 39 -40 113l-187 458q-34 84 -61 126l123 7q14 -59 40 -122l98 -237q60 -141 98 -255l103 257l85 214q40 98 49 136z" />
    <glyph glyph-name="W" unicode="W" horiz-adv-x="1002" 
d="M889 697l92 6q-22 -47 -60 -151l-162 -447q-21 -60 -30 -105h-20h-81q-4 18 -40 113l-90 246l-87 -254q-25 -73 -31 -105h-10h-88q-15 63 -34 113l-172 458q-32 81 -54 126l119 7q12 -66 33 -122l88 -237q52 -137 83 -248q25 85 82 250l37 106l-43 118q-24 69 -49 126
l110 6q11 -57 44 -147l78 -211q61 -169 83 -252l87 254l75 214q30 84 40 136z" />
    <glyph glyph-name="X" unicode="X" horiz-adv-x="769" 
d="M614 589l-180 -211l174 -214q81 -99 140 -164h-138q-43 67 -107 147l-130 160l-135 -157q-70 -82 -114 -150h-103l135 151l176 206l-181 223l-101 117l126 7q37 -54 86 -115l131 -161l140 163q51 59 84 105l100 8q-45 -47 -103 -115z" />
    <glyph glyph-name="Y" unicode="Y" horiz-adv-x="701" 
d="M581 697l99 6q-31 -44 -72 -115l-251 -436q-43 -76 -73 -152h-108q78 107 141 218l9 16l-83 128l-144 227q-38 58 -78 107l127 8q18 -45 54 -102l77 -123l31 -50q20 -31 67 -107l156 272q35 62 48 103z" />
    <glyph glyph-name="Z" unicode="Z" horiz-adv-x="772" 
d="M551 474l-377 -419h323q86 0 138 11q48 12 90 41l-24 -112q-78 5 -144 5h-495l-4 51q52 71 148 177l390 415h-293q-131 0 -205 -57l22 120q67 -6 134 -6h418l9 -90q-78 -78 -130 -136z" />
    <glyph glyph-name="bracketleft" unicode="[" horiz-adv-x="331" 
d="M73 760h218l4 -55q-47 3 -141 3v-849q91 0 140 3l-2 -55h-219q2 110 2 474q0 363 -2 479z" />
    <glyph glyph-name="backslash" unicode="\" horiz-adv-x="443" 
d="M36 719l87 5q14 -51 47 -137l175 -461q34 -89 62 -149h-87q-13 43 -50 142l-176 464q-8 22 -58 136z" />
    <glyph glyph-name="bracketright" unicode="]" horiz-adv-x="331" 
d="M36 705l4 55h218q-2 -116 -2 -479q0 -364 2 -474h-219l-2 55q50 -3 140 -3v849q-95 0 -141 -3z" />
    <glyph glyph-name="asciicircum" unicode="^" horiz-adv-x="538" 
d="M430 318q-20 41 -36 68q-67 117 -124 207l-121 -201l-42 -74l-51 26q18 28 45 80q79 150 138 276l59 4l144 -287l40 -72z" />
    <glyph glyph-name="underscore" unicode="_" horiz-adv-x="666" 
d="M57 55h553l-3 -67q-261 12 -551 12z" />
    <glyph glyph-name="grave" unicode="`" horiz-adv-x="290" 
d="M218 554q-88 32 -168 69l50 79q61 -52 140 -99z" />
    <glyph glyph-name="a" unicode="a" horiz-adv-x="575" 
d="M509 2h-91q-13 30 -13 71q-43 -36 -98.5 -58.5t-107.5 -22.5q-67 0 -109.5 35t-42.5 99q0 69 49.5 109.5t160.5 69.5q62 16 148 29q-8 107 -124 107q-91 0 -165 -60l-24 47q89 74 212 74q95 0 146 -48t51 -142v-238q0 -35 8 -72zM143 137q0 -50 41 -69.5t102 -2.5
q71 20 119 65v155q-60 -9 -128 -28q-134 -38 -134 -120z" />
    <glyph glyph-name="b" unicode="b" horiz-adv-x="629" 
d="M339 499q107 0 175 -68q67 -67 67 -178q0 -125 -67.5 -194.5t-183.5 -69.5q-112 0 -170 87l-11 -76h-83q6 70 6 121v534l-4 91l97 7q-3 -55 -3 -99v-231q67 76 177 76zM325 47q76 0 118.5 52.5t41.5 147.5q-1 87 -43.5 139.5t-120.5 52.5q-109 0 -159 -97v-186
q52 -109 163 -109z" />
    <glyph glyph-name="c" unicode="c" horiz-adv-x="578" 
d="M309 503q75 0 125 -24t91 -75l-44 -43q-55 82 -157 82q-80 0 -129 -55q-49 -53 -49 -140q0 -89 51 -143t144 -54q104 0 159 73l30 -46q-80 -89 -207 -89q-125 0 -200 72t-75 185q0 112 74 184q73 73 187 73z" />
    <glyph glyph-name="d" unicode="d" horiz-adv-x="630" 
d="M554 119l5 -119h-83q-5 23 -10 66q-62 -77 -170 -77q-109 0 -179 68q-69 67 -69 189q0 112 66 182q68 71 176 71q107 0 174 -76v232l-4 91l97 7q-3 -55 -3 -99v-535zM303 47q111 0 161 89v211q-54 92 -158 92q-74 0 -117.5 -48.5t-44.5 -138.5q-2 -99 45 -152t114 -53z
" />
    <glyph glyph-name="e" unicode="e" horiz-adv-x="592" 
d="M544 264q0 -23 -1 -29h-394q4 -89 50 -137t122 -48q94 0 164 62l27 -44q-41 -42 -89.5 -61t-116.5 -19q-105 0 -182 68q-76 67 -76 189q0 111 67 184q68 74 182 73t180.5 -64t66.5 -174zM151 289h299q0 70 -40.5 114.5t-108.5 44.5q-62 0 -102 -42.5t-48 -116.5z" />
    <glyph glyph-name="f" unicode="f" horiz-adv-x="416" 
d="M287 704q-103 0 -90 -217h154l-2 -71q-62 6 -149 9q2 -134 2 -304q0 -88 5 -121h-103q6 33 6 121v306q-16 1 -70 1l3 59h67v26q0 252 169 252q80 0 126 -61l-30 -41q-41 41 -88 41z" />
    <glyph glyph-name="g" unicode="g" horiz-adv-x="583" 
d="M306 26q34 6 74.5 4.5t75.5 -8.5t58 -33t23 -69q0 -68 -68 -107.5t-204 -39.5q-131 0 -219 56l26 49q70 -51 191 -51q80 0 130.5 23t50.5 63q0 30 -20.5 44t-53 14t-72.5 -2q-18 -2 -55 -5q-67 -7 -104 2q-37 10 -57.5 28.5t-20.5 55.5q0 64 84 98q-88 51 -88 159
q0 79 58 134t150 55q102 0 163 -58q50 54 109 54l13 -68q-49 -1 -85 -34q19 -37 19 -79q0 -86 -61 -138q-61 -53 -156 -53q-22 0 -54 5q-59 -23 -59 -62q0 -58 152 -37zM264 444q-51 -3 -80.5 -43t-27.5 -100q2 -64 37 -98.5t89 -29.5q52 4 79 41t24 99q-3 63 -36 98.5
t-85 32.5z" />
    <glyph glyph-name="h" unicode="h" horiz-adv-x="609" 
d="M537 295v-210l6 -83h-106l1 18l5 65v196q0 33 -4 57t-14.5 46.5t-33.5 34t-57 11.5q-92 0 -170 -103v-206q0 -88 5 -121h-103q6 33 6 121v534q0 66 -4 91l99 7q-3 -27 -3 -99v-258q91 103 206 103q84 0 125.5 -54t41.5 -150z" />
    <glyph glyph-name="i" unicode="i" horiz-adv-x="260" 
d="M194 660q0 -26 -17.5 -43.5t-45.5 -17.5q-29 0 -47 17.5t-18 43.5q0 25 18 42.5t47 17.5q28 0 45.5 -17.5t17.5 -42.5zM78 483l98 7q-3 -27 -3 -99v-270q0 -88 5 -121h-102q6 33 6 121v271q0 66 -4 91z" />
    <glyph glyph-name="j" unicode="j" horiz-adv-x="259" 
d="M193 660q0 -26 -17.5 -43.5t-45.5 -17.5q-29 0 -47 17.5t-18 43.5q0 25 18 42.5t47 17.5q28 0 45.5 -17.5t17.5 -42.5zM76 483l100 7q-3 -27 -3 -99v-367q0 -102 -52 -153q-52 -52 -126 -62l-15 49q49 14 75 52.5t26 117.5l-1 364q0 66 -4 91z" />
    <glyph glyph-name="k" unicode="k" horiz-adv-x="608" 
d="M501 156q69 -78 89 -156h-110q-7 45 -64 117q-38 49 -147 141l-105 -101v-36q0 -88 5 -121h-103q6 33 6 121v534q0 66 -4 91l99 7q-3 -27 -3 -99v-415q178 169 242 246l93 4q-33 -39 -174 -177q111 -84 176 -156z" />
    <glyph glyph-name="l" unicode="l" horiz-adv-x="251" 
d="M76 746l99 7q-3 -27 -3 -99v-533q0 -88 5 -121h-103q6 33 6 121v534q0 66 -4 91z" />
    <glyph glyph-name="m" unicode="m" horiz-adv-x="911" 
d="M839 295v-210l6 -83h-105l1 18q5 42 5 65v196q0 65 -17 103q-18 46 -83 46q-71 0 -142 -95q2 -34 2 -40v-210l6 -83h-105l1 18l5 65v196q0 65 -17 103q-18 46 -83 46q-75 0 -149 -105v-204q0 -88 5 -121h-103q6 33 6 121v271q0 66 -4 91l88 7q7 -50 8 -92q86 101 181 101
q117 0 148 -105q91 105 185 105q161 0 161 -204z" />
    <glyph glyph-name="n" unicode="n" horiz-adv-x="614" 
d="M542 85l6 -85h-105q6 30 6 85v196q0 73 -25.5 111t-86.5 38q-93 0 -173 -104v-205q0 -88 5 -121h-103q6 33 6 121v271q0 66 -4 91l88 7q6 -40 8 -94q91 103 209 103q84 0 126.5 -55t42.5 -149v-210z" />
    <glyph glyph-name="o" unicode="o" horiz-adv-x="625" 
d="M312 502q111 0 188 -74t77 -184t-76 -183q-75 -72 -189 -72q-116 0 -190 72q-74 74 -74 183q0 106 73 182t191 76zM305 448q-74 0 -114.5 -53t-40.5 -140q0 -109 50 -162q49 -52 121 -52q74 0 114 53.5t40 142.5q0 108 -50 160q-49 51 -120 51z" />
    <glyph glyph-name="p" unicode="p" horiz-adv-x="628" 
d="M338 499q107 0 175 -68q67 -67 67 -178q0 -125 -67.5 -194.5t-183.5 -69.5q-111 0 -168 85v-160q0 -79 2 -121l-97 -3q5 52 5 121v483l-4 91l86 7q6 -33 8 -76q74 83 177 83zM324 47q76 0 118.5 52.5t41.5 147.5q-1 87 -43.5 139.5t-120.5 52.5q-108 0 -159 -103v-180
q52 -109 163 -109z" />
    <glyph glyph-name="q" unicode="q" horiz-adv-x="628" 
d="M554 395v-378q0 -150 29 -213l-62 -12q-57 32 -57 205v64q-63 -72 -168 -72q-109 0 -179 68q-69 67 -69 189q0 112 66 182q68 71 176 71t175 -81l9 70l83 6q-3 -56 -3 -99zM303 47q111 0 161 86v208q-56 98 -158 98q-74 0 -117.5 -48.5t-44.5 -138.5q-2 -99 45 -152
t114 -53z" />
    <glyph glyph-name="r" unicode="r" horiz-adv-x="492" 
d="M353 499q55 0 87 -26l-6 -102q-44 45 -100 45t-99.5 -42t-71.5 -114v-139q0 -88 5 -121h-102q6 33 6 121v271q0 66 -4 91l87 7q8 -66 8 -99v-39q71 147 190 147z" />
    <glyph glyph-name="s" unicode="s" horiz-adv-x="564" 
d="M264 502q140 0 228 -75l-29 -46q-80 62 -186 62q-61 0 -99.5 -24t-38.5 -59q0 -31 38 -48q6 -2 59 -13l36 -4l37 -4q107 -13 158 -46t51 -99q0 -80 -66 -121q-64 -40 -164 -40q-65 0 -136 24q-70 25 -107 62l29 50q83 -76 209 -76q66 0 105 23t39 60q0 43 -44 58
q-22 10 -46 13l-26 4q-20 5 -56 8q-110 16 -156.5 46t-46.5 94q0 66 59 108q59 43 153 43z" />
    <glyph glyph-name="t" unicode="t" horiz-adv-x="407" 
d="M351 87l19 -45q-61 -56 -134 -56q-60 0 -92.5 38t-32.5 105v298q-16 1 -70 1l3 59h67q0 65 -3 113q41 8 96 28q-4 -47 -4 -141h152l-2 -71q-62 6 -150 9l2 -278q0 -46 14.5 -68.5t50.5 -22.5q38 0 84 31z" />
    <glyph glyph-name="u" unicode="u" horiz-adv-x="602" 
d="M531 119l5 -119h-83q-8 41 -11 84q-91 -94 -201 -94q-82 0 -125.5 55t-43.5 149v210l-6 79l105 7q-6 -34 -6 -86v-196q0 -73 25.5 -111t86.5 -38q87 0 164 92v245l-4 87l97 7q-3 -51 -3 -95v-276z" />
    <glyph glyph-name="v" unicode="v" horiz-adv-x="533" 
d="M426 484l91 6q-31 -64 -53 -119l-88 -227q-34 -84 -48 -144h-124q-15 64 -44 137l-90 232q-19 47 -54 115l106 6q18 -63 40 -116l67 -170q40 -93 51 -128l43 124l68 175q19 48 35 109z" />
    <glyph glyph-name="w" unicode="w" horiz-adv-x="851" 
d="M748 484l87 6q-24 -47 -54 -119l-88 -227q-28 -82 -43 -144h-82q-15 64 -44 137l-90 232l-5 13l-4 -11l-88 -227q-31 -78 -46 -144h-88q-10 47 -41 137l-91 232q-19 51 -54 115l107 6q23 -78 39 -116l40 -101q40 -97 62 -155q26 84 50 148l40 109q13 34 35 109l87 6
l-1 -3l6 3q16 -59 38 -116q64 -157 96 -260q26 86 53 152l41 109q23 58 38 109z" />
    <glyph glyph-name="x" unicode="x" horiz-adv-x="560" 
d="M337 262l106 -135l106 -127h-123q-17 31 -74 105l-71 92l-80 -92q-54 -58 -77 -105h-113q79 79 103 106l126 142l-123 158q-26 31 -71 77l120 8q21 -41 55 -82l76 -97l88 98q36 37 53 73l105 8l-38 -39l-40 -43z" />
    <glyph glyph-name="y" unicode="y" horiz-adv-x="562" 
d="M461 484l93 6l-61 -119l-207 -410q-80 -149 -182 -156l-16 63q71 8 131 114l20 38q-35 62 -61 121l-107 228l-56 115l107 8q25 -80 44 -118l121 -259l133 260q36 91 41 109z" />
    <glyph glyph-name="z" unicode="z" horiz-adv-x="570" 
d="M500 414l-336 -358h210q83 0 145 25l-4 -85q-49 4 -184 4h-276l-4 64l370 369h-224q-71 0 -121 -19l7 78q57 -5 138 -5h274z" />
    <glyph glyph-name="braceleft" unicode="{" horiz-adv-x="344" 
d="M221 -40q0 -44 25 -75.5t62 -31.5l-3 -49q-69 0 -114 41t-48 109q0 10 -0.5 25t-1 37.5t-0.5 40.5t-0.5 41t-1 38.5t-0.5 25.5q-2 37 -24 60t-62 27l2 68q37 4 59.5 26.5t24.5 57.5q1 13 1.5 50t0.5 54t0.5 54t1.5 50q3 68 48.5 110.5t116.5 42.5l-3 -49
q-35 0 -59.5 -30.5t-24.5 -73.5q0 -4 2 -96q3 -74 2 -109q-3 -76 -63 -121q60 -42 63 -118q1 -35 -2 -110q-2 -90 -2 -95z" />
    <glyph glyph-name="bar" unicode="|" horiz-adv-x="233" 
d="M76 751l81 7q-3 -27 -3 -99v-704q0 -88 5 -121h-85q6 33 6 121v705q0 66 -4 91z" />
    <glyph glyph-name="braceright" unicode="}" horiz-adv-x="344" 
d="M205 404q2 -37 24 -60t62 -27l-2 -68q-37 -4 -59.5 -26.5t-24.5 -57.5q0 -10 -0.5 -25.5t-1 -38.5t-0.5 -41t-0.5 -40.5t-1 -37.5t-0.5 -25q-3 -68 -48.5 -110.5t-116.5 -42.5l3 49q35 0 59.5 30.5t24.5 73.5q0 28 -3 95q-2 86 -1 110q3 76 63 121q-60 42 -63 118
q-1 24 1 109q3 69 3 96q0 44 -25 75.5t-62 31.5l3 49q69 0 114 -41t48 -109q0 -10 0.5 -25.5t1 -38.5t0.5 -41t0.5 -40.5t1 -37.5t0.5 -25z" />
    <glyph glyph-name="asciitilde" unicode="~" horiz-adv-x="598" 
d="M110 221l-34 39q42 82 131 82q36 1 69.5 -17.5t63 -36.5t55.5 -17q30 0 55.5 14.5t34.5 35.5l37 -36q-16 -33 -51.5 -57t-80.5 -24q-62 0 -104 34q-41 35 -83 35q-28 0 -54.5 -15t-38.5 -37z" />
    <glyph glyph-name="exclamdown" unicode="&#xa1;" horiz-adv-x="271" 
d="M178 543q-17 -17 -43 -17t-43 17q-16 18 -16 41t16 40q17 18 43 18t43 -18q17 -17 17 -40t-17 -41zM195 -64l-111 -6q3 183 5 273q6 160 19 250l58 2q15 -73 23 -250l3 -145q1 -98 3 -124z" />
    <glyph glyph-name="cent" unicode="&#xa2;" horiz-adv-x="576" 
d="M371 531l-53 -388h13q105 0 160 73l30 -46q-80 -89 -207 -89h-5l-3 -23q-10 -63 -10 -120l-75 10q13 48 22 120l3 20q-92 19 -145 86.5t-53 163.5q0 112 75 184q74 73 189 73h3l8 58q8 75 8 91l72 -4q-7 -26 -16 -97l-7 -54q88 -16 148 -93l-44 -43q-43 64 -113 78z
M141 340q0 -67 29.5 -116t84.5 -69l52 379q-75 -7 -121 -61q-45 -53 -45 -133z" />
    <glyph glyph-name="sterling" unicode="&#xa3;" horiz-adv-x="606" 
d="M534 112l36 -53q-47 -62 -144 -62q-63 0 -131 13q-66 13 -99 13q-14 0 -62 -6l-26 -9l-25 -9l-22 65q51 22 82.5 74t31.5 112q0 41 -19 88l-105 2l2 56h77q-19 45 -19 101q0 91 66 153t160 56q96 -4 166 -67l-30 -50q-58 55 -129 55q-63 0 -102 -40.5t-39 -104.5
q0 -53 26 -103h207l-2 -70q-93 6 -176 9q12 -35 12 -76q0 -97 -68 -156q46 2 113 -17q69 -19 112 -19q62 0 107 45z" />
    <glyph glyph-name="yen" unicode="&#xa5;" horiz-adv-x="667" 
d="M399 262l-8 -14v-75h188l-3 -66q-75 4 -185 6q0 -68 4 -113h-96q4 45 4 113v2l-194 3l2 55h192v88l-2 3l-192 3l2 55h150l-26 40l-135 213q-31 51 -79 108l127 6q18 -46 53 -101l68 -109q48 -78 88 -152l146 252q34 60 49 104l94 4q-35 -50 -71 -114l-142 -251h146
l-3 -66z" />
    <glyph glyph-name="section" unicode="&#xa7;" horiz-adv-x="557" 
d="M450 251q61 -34 61 -103q0 -79 -64 -118q-65 -39 -161 -39q-64 0 -133 24q-68 24 -104 60l28 49q83 -75 205 -75q65 0 102.5 22t37.5 59q0 44 -43 58q-30 9 -45 12l-25 4q-6 1 -28 4t-27 3q-105 15 -156.5 49.5t-51.5 97.5q0 76 63 111q-53 32 -53 97q0 66 58 106
q58 42 149 42q138 0 223 -73l-28 -45q-76 60 -182 60q-61 0 -98 -23.5t-37 -57.5q0 -37 41 -48q29 -8 44 -10l25 -3q6 0 27 -2.5t29 -3.5q104 -14 154 -45.5t50 -96.5q0 -78 -61 -115zM307 290q35 -5 63 -11q52 15 52 69q0 44 -43 58q-30 9 -45 12l-25 4q-6 1 -28 4t-27 3
q-53 9 -72 13q-36 -13 -47.5 -48.5t9.5 -58.5q13 -15 44 -24q28 -8 53 -13q39 -5 66 -8z" />
    <glyph glyph-name="dieresis" unicode="&#xa8;" horiz-adv-x="452" 
d="M107 674q35 2 50 -25t0 -54.5t-50 -25.5q-26 0 -41.5 15.5t-15.5 37.5t15.5 37t41.5 15zM344 674q36 0 51 -26t0 -52.5t-51 -26.5q-24 0 -40.5 15.5t-16.5 37.5q0 21 16.5 36.5t40.5 15.5z" />
    <glyph glyph-name="copyright" unicode="&#xa9;" horiz-adv-x="813" 
d="M398 669q159 0 262 -100q103 -99 103 -237q0 -150 -100 -247q-101 -98 -262 -98q-153 0 -252 99t-99 240q0 142 102 242q103 101 246 101zM401 612q-123 0 -206 -83t-83 -197q0 -121 82 -204q82 -84 204 -84q136 0 219 80q84 80 84 202q0 118 -86 202q-85 84 -214 84z
M411 515q100 0 160 -70l-27 -37q-42 54 -118 54q-54 0 -89.5 -38.5t-35.5 -95.5q0 -58 38.5 -95t95.5 -37q76 0 109 45l21 -42q-58 -61 -149 -61q-84 0 -141 51t-57 138q0 76 56 132t137 56z" />
    <glyph glyph-name="ordfeminine" unicode="&#xaa;" horiz-adv-x="362" 
d="M296 487h-52q-5 15 -7 38q-49 -43 -109 -43q-35 0 -58 18.5t-23 52.5q0 37 26.5 58.5t85.5 36.5q25 8 78 15q-3 51 -66 51q-42 0 -83 -35l-17 34q47 40 113 40q51 0 79.5 -26t28.5 -75v-126q0 -22 4 -39zM106 561q0 -21 20 -29.5t48 -0.5q30 7 63 34v61l-68 -13
q-63 -19 -63 -52z" />
    <glyph glyph-name="guillemotleft" unicode="&#xab;" horiz-adv-x="617" 
d="M264 468l65 -21q-22 -26 -41 -51l-107 -149q15 -23 95 -133q8 -11 53 -67l-65 -21q-21 29 -51 62l-147 159l151 162q36 42 47 59zM486 468l65 -21q-22 -26 -41 -51l-107 -149q15 -23 95 -133q8 -11 53 -67l-65 -21q-21 29 -51 62l-147 159l151 162q36 42 47 59z" />
    <glyph glyph-name="registered" unicode="&#xae;" horiz-adv-x="813" 
d="M398 669q159 0 262 -100q103 -99 103 -237q0 -150 -100 -247q-101 -98 -262 -98q-153 0 -252 99t-99 240q0 142 102 242q103 101 246 101zM398 44q136 0 219 80q84 80 84 202q0 118 -86 202q-85 84 -214 84q-123 0 -206 -83t-83 -197q0 -121 82 -204q82 -84 204 -84z
M452 294q56 -27 90 -64q35 -37 49 -81h-88q-7 30 -37 66q-34 42 -86 67h-18h-25v-72l3 -61h-75q3 37 3 61v252l-2 47h71h38q79 0 121.5 -28.5t42.5 -79.5q0 -79 -87 -107zM337 462v-132h22q107 0 107 66t-99 66h-30z" />
    <glyph glyph-name="degree" unicode="&#xb0;" horiz-adv-x="406" 
d="M360 568q0 -62 -46 -107q-45 -45 -111 -45t-112 44q-45 43 -45 106q0 60 45 104q46 44 112 44q68 0 112 -43q45 -42 45 -103zM200 658q-35 0 -54.5 -25t-19.5 -65q0 -43 22 -69.5t58 -26.5q34 0 54 26.5t20 67.5q0 43 -21.5 67.5t-58.5 24.5z" />
    <glyph glyph-name="plusminus" unicode="&#xb1;" horiz-adv-x="600" 
d="M331 170l-67 2q3 55 5 173q-123 3 -213 3l1 55h213q2 162 2 166l55 3v-169h203l-3 -67q-103 5 -199 8q0 -82 3 -174zM56 54l1 55h473l-3 -67q-133 9 -471 12z" />
    <glyph glyph-name="twosuperior" unicode="&#xb2;" horiz-adv-x="333" 
d="M111 528h74q77 0 92 15l-5 -58q-34 2 -73 2h-141q-14 97 69 135q17 8 56 21q35 15 35 35q0 15 -14 24.5t-37 9.5q-47 0 -75 -39l-19 28q11 22 37 37.5t63 15.5q45 0 72 -22t27 -58q0 -34 -21.5 -55t-53.5 -28q-77 -17 -86 -63z" />
    <glyph glyph-name="threesuperior" unicode="&#xb3;" horiz-adv-x="309" 
d="M168 648q35 1 70 -17t35 -61q0 -38 -32.5 -62.5t-85.5 -24.5q-81 0 -119 66l24 26q34 -46 89 -46q30 0 46.5 11.5t16.5 30.5q0 24 -27 34.5t-64 1.5l-14 33q26 26 76 65h-40q-45 0 -78 -10l11 56q11 -1 48 -1h106l12 -42q-38 -28 -74 -60z" />
    <glyph glyph-name="acute" unicode="&#xb4;" horiz-adv-x="290" 
d="M50 603q79 47 140 99l50 -79q-80 -37 -168 -69z" />
    <glyph glyph-name="middot" unicode="&#xb7;" horiz-adv-x="325" 
d="M120 383q17 18 43 18t42 -18q17 -17 17 -40t-17 -41q-16 -17 -42 -17t-43 17q-17 18 -17 41t17 40z" />
    <glyph glyph-name="cedilla" unicode="&#xb8;" horiz-adv-x="600" 
d="M274 11l55 1l-19 -55q35 -2 61 -23.5t26 -52.5q0 -39 -28.5 -62t-74.5 -23q-57 0 -96 36l18 37q37 -23 71 -19t34 33q0 21 -22.5 34t-58.5 15z" />
    <glyph glyph-name="onesuperior" unicode="&#xb9;" horiz-adv-x="199" 
d="M138 487h-71q8 42 8 86v106q-24 -17 -49 -16l-2 37q41 14 64 50l43 3q-1 -13 -1 -56v-123q0 -45 8 -87z" />
    <glyph glyph-name="ordmasculine" unicode="&#xba;" horiz-adv-x="374" 
d="M187 753q59 0 99 -39t40 -97q0 -59 -40 -96q-41 -38 -99 -38q-61 0 -100 38t-39 96q0 55 38 96q39 40 101 40zM183 711q-35 0 -54 -24t-19 -64q0 -49 22.5 -74t58.5 -25t55 24.5t19 65.5q0 49 -22.5 73t-59.5 24z" />
    <glyph glyph-name="guillemotright" unicode="&#xbb;" horiz-adv-x="600" 
d="M66 447l65 21q11 -17 47 -59l151 -162l-147 -159q-30 -33 -51 -62l-65 21q45 56 53 67q80 110 95 133l-107 149q-19 25 -41 51zM288 447l65 21q11 -17 47 -59l151 -162l-147 -159q-30 -33 -51 -62l-65 21q45 56 53 67q80 110 95 133l-107 149q-19 25 -41 51z" />
    <glyph glyph-name="questiondown" unicode="&#xbf;" horiz-adv-x="610" 
d="M371 543q-17 -17 -43 -17t-43 17q-16 18 -16 41t16 40q17 18 43 18t43 -18q17 -17 17 -40t-17 -41zM297 -82q-100 0 -173 52q-73 51 -73 144q0 75 42 122q19 20 46 36q32 18 109 45l13 4q47 16 68.5 42t18 50.5t-23.5 43.5l61 14q36 -18 48 -55.5t-7 -79t-65 -67.5
q-20 -13 -114 -49q-43 -15 -66 -40.5t-23 -74.5q0 -52 42.5 -85t111.5 -33q137 0 225 109l37 -37q-43 -67 -115 -104t-162 -37z" />
    <glyph glyph-name="Agrave" unicode="&#xc0;" 
d="M483 816l-22 -49q-89 31 -168 69l50 79q61 -52 140 -99zM442 704l42 -109l202 -466q34 -81 66 -129h-124q-13 53 -42 118l-19 43h-396l-10 -22q-39 -89 -51 -139h-89q37 66 72 148l191 440q31 70 41 107zM196 218h346l-174 389z" />
    <glyph glyph-name="Aacute" unicode="&#xc1;" 
d="M429 915l50 -79q-79 -38 -168 -69l-22 49q79 47 140 99zM442 704l42 -109l202 -466q34 -81 66 -129h-124q-13 53 -42 118l-19 43h-396l-10 -22q-39 -89 -51 -139h-89q37 66 72 148l191 440q31 70 41 107zM196 218h346l-174 389z" />
    <glyph glyph-name="Acircumflex" unicode="&#xc2;" 
d="M387 821q-52 -22 -101 -55l-30 48q53 37 131 103q65 -55 131 -102l-30 -48q-44 31 -101 54zM442 704l42 -109l202 -466q34 -81 66 -129h-124q-13 53 -42 118l-19 43h-396l-10 -22q-39 -89 -51 -139h-89q37 66 72 148l191 440q31 70 41 107zM196 218h346l-174 389z" />
    <glyph glyph-name="Atilde" unicode="&#xc3;" 
d="M307 838q-42 0 -63 -37l-30 27q31 78 104 78q42 0 83 -29q40 -28 71 -28q40 0 59 34l32 -26q-36 -78 -105 -78q-43 0 -81 29q-38 30 -70 30zM442 704l42 -109l202 -466q34 -81 66 -129h-124q-13 53 -42 118l-19 43h-396l-10 -22q-39 -89 -51 -139h-89q37 66 72 148
l191 440q31 70 41 107zM196 218h346l-174 389z" />
    <glyph glyph-name="Adieresis" unicode="&#xc4;" 
d="M265 782q-26 0 -41.5 15.5t-15.5 37.5t15.5 37t41.5 15q35 2 50 -25t0 -54.5t-50 -25.5zM502 782q-24 0 -40.5 15.5t-16.5 37.5q0 21 16.5 36.5t40.5 15.5q36 0 51 -26.5t0 -52.5t-51 -26zM442 704l42 -109l202 -466q34 -81 66 -129h-124q-13 53 -42 118l-19 43h-396
l-10 -22q-39 -89 -51 -139h-89q37 66 72 148l191 440q31 70 41 107zM196 218h346l-174 389z" />
    <glyph glyph-name="Aring" unicode="&#xc5;" 
d="M284 849q0 41 29.5 66t74.5 25t74.5 -24t29.5 -62q0 -41 -29.5 -66t-74.5 -25t-74.5 24t-29.5 62zM339 851q0 -20 14.5 -32t35.5 -12t34.5 13.5t13.5 32.5q2 27 -24 38t-51.5 -1t-22.5 -39zM442 704l42 -109l202 -466q34 -81 66 -129h-124q-13 53 -42 118l-19 43h-396
l-10 -22q-39 -89 -51 -139h-89q37 66 72 148l191 440q31 70 41 107zM196 218h346l-174 389z" />
    <glyph glyph-name="AE" unicode="&#xc6;" horiz-adv-x="1107" 
d="M616 362v-305h257q108 0 183 32l-19 -92q-36 3 -144 3h-379q4 82 6 138h-329l-7 -10q-58 -87 -75 -128h-99q41 49 97 133l313 468q27 39 59 99h366q59 0 137 5l10 -90q-52 28 -158 28h-218v-231h271l-8 -71q-106 18 -263 21zM519 626l-290 -431h291v385z" />
    <glyph glyph-name="Ccedilla" unicode="&#xc7;" horiz-adv-x="797" 
d="M444 -15h-6l-10 -28q35 -2 61 -23.5t26 -52.5q0 -39 -28.5 -62t-74.5 -23q-57 0 -96 36l18 37q37 -23 71 -19t34 33q0 21 -22.5 34t-58.5 15l24 57q-151 18 -239 118q-87 101 -87 247q0 69 28 134t77 115.5t123 81t161 30.5q165 0 278 -93l-35 -59q-84 91 -229 91
q-126 0 -210 -87q-84 -86 -84 -202q0 -143 84 -229q84 -84 210 -84q80 0 137.5 27t112.5 87l32 -54q-109 -127 -297 -127z" />
    <glyph glyph-name="Egrave" unicode="&#xc8;" horiz-adv-x="674" 
d="M433 816l-22 -49q-89 31 -168 69l50 79q61 -52 140 -99zM183 362v-305h257q108 0 183 32l-19 -92q-36 3 -144 3h-379q6 115 6 166v414l-4 120h329q59 0 137 5l10 -90q-52 28 -158 28h-218v-231h271l-8 -71q-106 18 -263 21z" />
    <glyph glyph-name="Eacute" unicode="&#xc9;" horiz-adv-x="674" 
d="M379 915l50 -79q-79 -38 -168 -69l-22 49q79 47 140 99zM183 362v-305h257q108 0 183 32l-19 -92q-36 3 -144 3h-379q6 115 6 166v414l-4 120h329q59 0 137 5l10 -90q-52 28 -158 28h-218v-231h271l-8 -71q-106 18 -263 21z" />
    <glyph glyph-name="Ecircumflex" unicode="&#xca;" horiz-adv-x="674" 
d="M337 821q-52 -22 -101 -55l-30 48q53 37 131 103q65 -55 131 -102l-30 -48q-44 31 -101 54zM183 362v-305h257q108 0 183 32l-19 -92q-36 3 -144 3h-379q6 115 6 166v414l-4 120h329q59 0 137 5l10 -90q-52 28 -158 28h-218v-231h271l-8 -71q-106 18 -263 21z" />
    <glyph glyph-name="Edieresis" unicode="&#xcb;" horiz-adv-x="674" 
d="M215 782q-26 0 -41.5 15.5t-15.5 37.5t15.5 37t41.5 15q35 2 50 -25t0 -54.5t-50 -25.5zM452 782q-24 0 -40.5 15.5t-16.5 37.5q0 21 16.5 36.5t40.5 15.5q36 0 51 -26.5t0 -52.5t-51 -26zM183 362v-305h257q108 0 183 32l-19 -92q-36 3 -144 3h-379q6 115 6 166v414
l-4 120h329q59 0 137 5l10 -90q-52 28 -158 28h-218v-231h271l-8 -71q-106 18 -263 21z" />
    <glyph glyph-name="Igrave" unicode="&#xcc;" horiz-adv-x="300" 
d="M224 767q-88 31 -168 69l50 79q61 -52 140 -99zM98 697q4 -32 4 -92v-484q0 -51 -6 -121h108l-6 121v484q0 73 3 98z" />
    <glyph glyph-name="Iacute" unicode="&#xcd;" horiz-adv-x="300" 
d="M52 816q79 47 140 99l50 -79q-80 -38 -168 -69zM98 697q4 -32 4 -92v-484q0 -51 -6 -121h108l-6 121v484q0 73 3 98z" />
    <glyph glyph-name="Icircumflex" unicode="&#xce;" horiz-adv-x="300" 
d="M150 917q65 -55 131 -102l-30 -48q-44 31 -101 54q-52 -22 -101 -55l-30 48q53 37 131 103zM98 697l103 6q-3 -25 -3 -98v-484l6 -121h-108q6 70 6 121v484q0 60 -4 92z" />
    <glyph glyph-name="Idieresis" unicode="&#xcf;" horiz-adv-x="290" 
d="M33 887q35 2 50 -25t0 -54.5t-50 -25.5q-26 0 -41.5 15.5t-15.5 37.5t15.5 37t41.5 15zM250 887q36 0 51 -26.5t0 -52.5t-51 -26q-24 0 -40.5 15.5t-16.5 37.5q0 21 16.5 36.5t40.5 15.5zM93 697l103 6q-3 -25 -3 -98v-484l6 -121h-108q6 70 6 121v484q0 60 -4 92z" />
    <glyph glyph-name="Ntilde" unicode="&#xd1;" horiz-adv-x="765" 
d="M303 838q-42 0 -63 -37l-30 27q31 78 104 78q42 0 83 -29q40 -28 71 -28q40 0 59 34l32 -26q-36 -78 -105 -78q-43 0 -81 29q-37 30 -70 30zM678 605v-484l6 -121h-108l-73 103l-345 466v-448l6 -121h-83q6 70 6 121v484q0 60 -4 92l94 6q39 -60 63 -91l367 -493v2v484
q0 60 -4 92l78 6q-3 -25 -3 -98z" />
    <glyph glyph-name="Ograve" unicode="&#xd2;" horiz-adv-x="831" 
d="M489 775q-89 31 -168 69l50 79q61 -52 140 -99zM415 714q-158 0 -258 -103q-101 -103 -101 -266q0 -161 99 -261q99 -99 260 -99q159 0 260 104q100 103 100 271q0 153 -100 253q-101 101 -260 101zM412 657q119 0 187 -83t69 -231q1 -130 -63 -215t-187 -85
q-108 0 -182 83q-73 82 -76 227q-3 139 64 221q68 83 188 83z" />
    <glyph glyph-name="Oacute" unicode="&#xd3;" horiz-adv-x="831" 
d="M317 824q79 47 140 99l50 -79q-79 -38 -168 -69zM415 714q-158 0 -258 -103q-101 -103 -101 -266q0 -161 99 -261q99 -99 260 -99q159 0 260 104q100 103 100 271q0 153 -100 253q-101 101 -260 101zM412 657q119 0 187 -83t69 -231q1 -130 -63 -215t-187 -85
q-108 0 -182 83q-73 82 -76 227q-3 139 64 221q68 83 188 83z" />
    <glyph glyph-name="Ocircumflex" unicode="&#xd4;" horiz-adv-x="831" 
d="M415 925q65 -55 131 -102l-30 -48q-44 31 -101 54q-52 -22 -101 -55l-30 48q53 37 131 103zM415 714q159 0 260 -101q100 -100 100 -253q0 -168 -100 -271q-101 -104 -260 -104q-161 0 -260 99q-99 100 -99 261q0 163 101 266q100 103 258 103zM412 657q-120 0 -188 -83
q-67 -82 -64 -221q3 -145 76 -227q74 -83 182 -83q123 0 187 85t63 215q-1 148 -69 231t-187 83z" />
    <glyph glyph-name="Otilde" unicode="&#xd5;" horiz-adv-x="831" 
d="M272 809l-30 27q31 78 104 78q42 0 83 -29q40 -28 71 -28q40 0 59 34l32 -26q-36 -78 -105 -78q-43 0 -81 29q-37 30 -70 30q-42 0 -63 -37zM415 714q159 0 260 -101q100 -100 100 -253q0 -168 -100 -271q-101 -104 -260 -104q-161 0 -260 99q-99 100 -99 261
q0 163 101 266q100 103 258 103zM412 657q-120 0 -188 -83q-67 -82 -64 -221q3 -145 76 -227q74 -83 182 -83q123 0 187 85t63 215q-1 148 -69 231t-187 83z" />
    <glyph glyph-name="Odieresis" unicode="&#xd6;" horiz-adv-x="831" 
d="M293 895q35 2 50 -25t0 -54.5t-50 -25.5q-26 0 -41.5 15.5t-15.5 37.5t15.5 37t41.5 15zM530 895q36 0 51 -26.5t0 -52.5t-51 -26q-24 0 -40.5 15.5t-16.5 37.5q0 21 16.5 36.5t40.5 15.5zM415 714q159 0 260 -101q100 -100 100 -253q0 -168 -100 -271
q-101 -104 -260 -104q-161 0 -260 99q-99 100 -99 261q0 163 101 266q100 103 258 103zM412 657q-120 0 -188 -83q-67 -82 -64 -221q3 -145 76 -227q74 -83 182 -83q123 0 187 85t63 215q-1 148 -69 231t-187 83z" />
    <glyph glyph-name="multiply" unicode="&#xd7;" horiz-adv-x="545" 
d="M274 331l169 168l46 -49l-173 -161l172 -174l-49 -46q-37 43 -166 179l-179 -173l-38 40l176 175l-168 174l40 38z" />
    <glyph glyph-name="Oslash" unicode="&#xd8;" horiz-adv-x="831" 
d="M585 710h96l-44 -64q66 -48 102 -122.5t36 -163.5q0 -168 -100 -271q-101 -104 -260 -104q-92 0 -167 35l-17 -31l-96 -1q34 47 48 71q-127 100 -127 286q0 163 101 266q100 103 258 103q87 0 156 -31zM412 657q-120 0 -188 -83q-67 -82 -64 -221q3 -138 70 -220l284 455
l23 38q-53 31 -125 31zM418 43q123 0 187 85t63 215q0 151 -74 237l-287 -462l-22 -36q59 -39 133 -39z" />
    <glyph glyph-name="Ugrave" unicode="&#xd9;" horiz-adv-x="769" 
d="M459 767q-89 31 -168 69l50 79q61 -52 140 -99zM605 698l4 -93v-279q0 -130 -55 -195.5t-158 -65.5q-104 0 -159.5 65t-55.5 188v287q0 23 3 83v14l-103 -4l4 -93v-299q0 -150 81 -235q81 -84 219 -84q137 0 218 86q82 86 82 246v286q0 23 3 83v14z" />
    <glyph glyph-name="Uacute" unicode="&#xda;" horiz-adv-x="769" 
d="M287 816q79 47 140 99l50 -79q-79 -38 -168 -69zM605 698l4 -93v-279q0 -130 -55 -195.5t-158 -65.5q-104 0 -159.5 65t-55.5 188v287q0 23 3 83v14l-103 -4l4 -93v-299q0 -150 81 -235q81 -84 219 -84q137 0 218 86q82 86 82 246v286q0 23 3 83v14z" />
    <glyph glyph-name="Ucircumflex" unicode="&#xdb;" horiz-adv-x="769" 
d="M385 917q65 -55 131 -102l-30 -48q-44 31 -101 54q-52 -22 -101 -55l-30 48q53 37 131 103zM609 605l-4 93l83 4v-14q-3 -60 -3 -83v-286q0 -160 -82 -246q-81 -86 -218 -86q-138 0 -219 84q-81 85 -81 235v299l-4 93l103 4v-14q-3 -60 -3 -83v-287q0 -123 55.5 -188
t159.5 -65q103 0 158 65.5t55 195.5v279z" />
    <glyph glyph-name="Udieresis" unicode="&#xdc;" horiz-adv-x="769" 
d="M263 887q35 2 50 -25t0 -54.5t-50 -25.5q-26 0 -41.5 15.5t-15.5 37.5t15.5 37t41.5 15zM500 887q36 0 51 -26.5t0 -52.5t-51 -26q-24 0 -40.5 15.5t-16.5 37.5q0 21 16.5 36.5t40.5 15.5zM609 605l-4 93l83 4v-14q-3 -60 -3 -83v-286q0 -160 -82 -246q-81 -86 -218 -86
q-138 0 -219 84q-81 85 -81 235v299l-4 93l103 4v-14q-3 -60 -3 -83v-287q0 -123 55.5 -188t159.5 -65q103 0 158 65.5t55 195.5v279z" />
    <glyph glyph-name="Yacute" unicode="&#xdd;" horiz-adv-x="701" 
d="M408 915l50 -79q-80 -38 -168 -69l-22 49q79 47 140 99zM581 697l99 6q-31 -44 -72 -115l-251 -436q-43 -76 -73 -152h-108q78 107 141 218l9 16l-83 128l-144 227q-38 58 -78 107l127 8q18 -45 54 -102l77 -123l31 -50q20 -31 67 -107l156 272q35 62 48 103z" />
    <glyph glyph-name="germandbls" unicode="&#xdf;" horiz-adv-x="623" 
d="M320 361q0 -44 91 -67q34 -8 58 -16.5t51.5 -25.5t42 -45.5t14.5 -66.5q0 -71 -52 -108t-145 -37t-157 53l25 52q43 -46 130 -46q48 0 78.5 20t30.5 53q0 60 -91 83q-32 8 -46.5 12.5t-42.5 16.5t-41 24.5t-24.5 35.5t-11.5 51q0 36 15.5 65.5t37 51t43.5 41.5t37.5 46.5
t15.5 57.5q0 42 -28.5 68.5t-77.5 26.5q-124 0 -116 -224l7 -362q1 -98 5 -121h-103q6 33 6 121v389q0 121 50.5 188t146.5 67q76 0 126 -44t50 -103q0 -52 -19.5 -94t-43 -64t-43 -48t-19.5 -51z" />
    <glyph glyph-name="agrave" unicode="&#xe0;" horiz-adv-x="575" 
d="M381 603l-22 -49q-89 32 -168 69l50 79q61 -52 140 -99zM509 2h-91q-13 30 -13 71q-43 -36 -98.5 -58.5t-107.5 -22.5q-67 0 -109.5 35t-42.5 99q0 69 49.5 109.5t160.5 69.5q62 16 148 29q-8 107 -124 107q-91 0 -165 -60l-24 47q89 74 212 74q95 0 146 -48t51 -142
v-238q0 -35 8 -72zM143 137q0 -50 41 -69.5t102 -2.5q71 20 119 65v155q-60 -9 -128 -28q-134 -38 -134 -120z" />
    <glyph glyph-name="aacute" unicode="&#xe1;" horiz-adv-x="575" 
d="M327 702l50 -79q-79 -37 -168 -69l-22 49q79 47 140 99zM509 2h-91q-13 30 -13 71q-43 -36 -98.5 -58.5t-107.5 -22.5q-67 0 -109.5 35t-42.5 99q0 69 49.5 109.5t160.5 69.5q62 16 148 29q-8 107 -124 107q-91 0 -165 -60l-24 47q89 74 212 74q95 0 146 -48t51 -142
v-238q0 -35 8 -72zM143 137q0 -50 41 -69.5t102 -2.5q71 20 119 65v155q-60 -9 -128 -28q-134 -38 -134 -120z" />
    <glyph glyph-name="acircumflex" unicode="&#xe2;" horiz-adv-x="575" 
d="M285 608q-52 -22 -101 -55l-30 48q53 37 131 103q65 -55 131 -102l-30 -48q-44 31 -101 54zM509 2h-91q-13 30 -13 71q-43 -36 -98.5 -58.5t-107.5 -22.5q-67 0 -109.5 35t-42.5 99q0 69 49.5 109.5t160.5 69.5q62 16 148 29q-8 107 -124 107q-91 0 -165 -60l-24 47
q89 74 212 74q95 0 146 -48t51 -142v-238q0 -35 8 -72zM143 137q0 -50 41 -69.5t102 -2.5q71 20 119 65v155q-60 -9 -128 -28q-134 -38 -134 -120z" />
    <glyph glyph-name="atilde" unicode="&#xe3;" horiz-adv-x="575" 
d="M205 625q-42 0 -63 -37l-30 27q31 78 104 78q42 0 83 -29q40 -28 71 -28q40 0 59 34l32 -26q-36 -78 -105 -78q-43 0 -81 29q-37 30 -70 30zM509 2h-91q-13 30 -13 71q-43 -36 -98.5 -58.5t-107.5 -22.5q-67 0 -109.5 35t-42.5 99q0 69 49.5 109.5t160.5 69.5
q62 16 148 29q-8 107 -124 107q-91 0 -165 -60l-24 47q89 74 212 74q95 0 146 -48t51 -142v-238q0 -35 8 -72zM143 137q0 -50 41 -69.5t102 -2.5q71 20 119 65v155q-60 -9 -128 -28q-134 -38 -134 -120z" />
    <glyph glyph-name="adieresis" unicode="&#xe4;" horiz-adv-x="575" 
d="M163 569q-26 0 -41.5 15.5t-15.5 37.5t15.5 37t41.5 15q35 2 50 -25t0 -54.5t-50 -25.5zM400 569q-24 0 -40.5 15.5t-16.5 37.5q0 21 16.5 36.5t40.5 15.5q36 0 51 -26t0 -52.5t-51 -26.5zM509 2h-91q-13 30 -13 71q-43 -36 -98.5 -58.5t-107.5 -22.5q-67 0 -109.5 35
t-42.5 99q0 69 49.5 109.5t160.5 69.5q62 16 148 29q-8 107 -124 107q-91 0 -165 -60l-24 47q89 74 212 74q95 0 146 -48t51 -142v-238q0 -35 8 -72zM143 137q0 -50 41 -69.5t102 -2.5q71 20 119 65v155q-60 -9 -128 -28q-134 -38 -134 -120z" />
    <glyph glyph-name="aring" unicode="&#xe5;" horiz-adv-x="575" 
d="M182 636q0 41 29.5 66t74.5 25t74.5 -24t29.5 -62q0 -41 -29.5 -66t-74.5 -25t-74.5 24t-29.5 62zM237 638q0 -20 14.5 -32t35.5 -12t34.5 13.5t13.5 32.5q2 27 -24 38t-51.5 -1t-22.5 -39zM509 2h-91q-13 30 -13 71q-43 -36 -98.5 -58.5t-107.5 -22.5q-67 0 -109.5 35
t-42.5 99q0 69 49.5 109.5t160.5 69.5q62 16 148 29q-8 107 -124 107q-91 0 -165 -60l-24 47q89 74 212 74q95 0 146 -48t51 -142v-238q0 -35 8 -72zM143 137q0 -50 41 -69.5t102 -2.5q71 20 119 65v155q-60 -9 -128 -28q-134 -38 -134 -120z" />
    <glyph glyph-name="ae" unicode="&#xe6;" horiz-adv-x="960" 
d="M912 264q0 -23 -1 -29h-400q4 -88 51 -136.5t124 -48.5q94 0 164 62l27 -44q-41 -42 -89.5 -61t-116.5 -19t-126 28.5t-94 81.5q-49 -47 -119 -77q-72 -29 -131 -29q-68 0 -111 34.5t-43 98.5q0 70 50.5 110.5t164.5 69.5q62 16 148 29q-8 107 -124 107q-92 0 -165 -60
l-24 47q89 74 212 74q119 0 168 -78q71 80 185 78q115 -1 182.5 -64.5t67.5 -173.5zM513 289h305q0 68 -42 113q-40 46 -110 46q-63 0 -104 -43t-49 -116zM291 65q82 22 137 79q-18 44 -18 101v40q-60 -9 -128 -28q-139 -37 -139 -121q0 -50 41 -70t107 -1z" />
    <glyph glyph-name="ccedilla" unicode="&#xe7;" horiz-adv-x="578" 
d="M500 124l30 -46q-79 -87 -202 -89l-11 -32q35 -2 61 -23.5t26 -52.5q0 -39 -28.5 -62t-74.5 -23q-57 0 -96 36l18 37q37 -23 71 -19t34 33q0 21 -22.5 34t-58.5 15l26 60q-103 15 -165 84q-60 69 -60 170q0 112 74 184q73 73 187 73q75 0 125 -24t91 -75l-44 -43
q-55 82 -157 82q-80 0 -129 -55q-49 -53 -49 -140q0 -89 51 -143t144 -54q104 0 159 73z" />
    <glyph glyph-name="egrave" unicode="&#xe8;" horiz-adv-x="592" 
d="M392 603l-22 -49q-88 32 -168 69l50 79q61 -52 140 -99zM544 264q0 -23 -1 -29h-394q4 -89 50 -137t122 -48q94 0 164 62l27 -44q-41 -42 -89.5 -61t-116.5 -19q-105 0 -182 68q-76 67 -76 189q0 111 67 184q68 74 182 73t180.5 -64t66.5 -174zM151 289h299
q0 70 -40.5 114.5t-108.5 44.5q-62 0 -102 -42.5t-48 -116.5z" />
    <glyph glyph-name="eacute" unicode="&#xe9;" horiz-adv-x="592" 
d="M338 702l50 -79q-80 -37 -168 -69l-22 49q79 47 140 99zM544 264q0 -23 -1 -29h-394q4 -89 50 -137t122 -48q94 0 164 62l27 -44q-41 -42 -89.5 -61t-116.5 -19q-105 0 -182 68q-76 67 -76 189q0 111 67 184q68 74 182 73t180.5 -64t66.5 -174zM151 289h299
q0 70 -40.5 114.5t-108.5 44.5q-62 0 -102 -42.5t-48 -116.5z" />
    <glyph glyph-name="ecircumflex" unicode="&#xea;" horiz-adv-x="592" 
d="M296 608q-52 -22 -101 -55l-30 48q53 37 131 103q65 -55 131 -102l-30 -48q-44 31 -101 54zM544 264q0 -23 -1 -29h-394q4 -89 50 -137t122 -48q94 0 164 62l27 -44q-41 -42 -89.5 -61t-116.5 -19q-105 0 -182 68q-76 67 -76 189q0 111 67 184q68 74 182 73t180.5 -64
t66.5 -174zM151 289h299q0 70 -40.5 114.5t-108.5 44.5q-62 0 -102 -42.5t-48 -116.5z" />
    <glyph glyph-name="edieresis" unicode="&#xeb;" horiz-adv-x="592" 
d="M174 569q-26 0 -41.5 15.5t-15.5 37.5t15.5 37t41.5 15q35 2 50 -25t0 -54.5t-50 -25.5zM411 569q-24 0 -40.5 15.5t-16.5 37.5q0 21 16.5 36.5t40.5 15.5q36 0 51 -26t0 -52.5t-51 -26.5zM544 264q0 -23 -1 -29h-394q4 -89 50 -137t122 -48q94 0 164 62l27 -44
q-41 -42 -89.5 -61t-116.5 -19q-105 0 -182 68q-76 67 -76 189q0 111 67 184q68 74 182 73t180.5 -64t66.5 -174zM151 289h299q0 70 -40.5 114.5t-108.5 44.5q-62 0 -102 -42.5t-48 -116.5z" />
    <glyph glyph-name="igrave" unicode="&#xec;" horiz-adv-x="254" 
d="M201 554q-89 32 -168 69l50 79q61 -52 140 -99zM78 483q4 -25 4 -91v-271q0 -88 -6 -121h102q-5 33 -5 121v270q0 72 3 99z" />
    <glyph glyph-name="iacute" unicode="&#xed;" horiz-adv-x="254" 
d="M29 603q79 47 140 99l50 -79q-79 -37 -168 -69zM78 483q4 -25 4 -91v-271q0 -88 -6 -121h102q-5 33 -5 121v270q0 72 3 99z" />
    <glyph glyph-name="icircumflex" unicode="&#xee;" horiz-adv-x="254" 
d="M127 704q65 -55 131 -102l-30 -48q-44 31 -101 54q-52 -22 -101 -55l-30 48q53 37 131 103zM78 483l98 7q-3 -27 -3 -99v-270q0 -88 5 -121h-102q6 33 6 121v271q0 66 -4 91z" />
    <glyph glyph-name="idieresis" unicode="&#xef;" horiz-adv-x="274" 
d="M35 672q35 2 50 -25t0 -54.5t-50 -25.5q-26 0 -41.5 15.5t-15.5 37.5t15.5 37t41.5 15zM232 672q36 0 51 -26t0 -52.5t-51 -26.5q-24 0 -40.5 15.5t-16.5 37.5q0 21 16.5 36.5t40.5 15.5zM88 483l98 7q-3 -27 -3 -99v-270q0 -88 5 -121h-102q6 33 6 121v271q0 66 -4 91z
" />
    <glyph glyph-name="ntilde" unicode="&#xf1;" horiz-adv-x="614" 
d="M232 625q-42 0 -63 -37l-30 27q31 78 104 78q42 0 83 -29q40 -28 71 -28q40 0 59 34l32 -26q-36 -78 -105 -78q-43 0 -81 29q-38 30 -70 30zM542 85l6 -85h-105q6 30 6 85v196q0 73 -25.5 111t-86.5 38q-93 0 -173 -104v-205q0 -88 5 -121h-103q6 33 6 121v271
q0 66 -4 91l88 7q6 -40 8 -94q91 103 209 103q84 0 126.5 -55t42.5 -149v-210z" />
    <glyph glyph-name="ograve" unicode="&#xf2;" horiz-adv-x="625" 
d="M387 554q-89 32 -168 69l50 79q61 -52 140 -99zM312 502q-118 0 -191 -76t-73 -182q0 -109 74 -183q74 -72 190 -72q114 0 189 72q76 73 76 183t-77 184t-188 74zM305 448q71 0 120 -51q50 -52 50 -160q0 -89 -40 -142.5t-114 -53.5q-72 0 -121 52q-50 53 -50 162
q0 87 40.5 140t114.5 53z" />
    <glyph glyph-name="oacute" unicode="&#xf3;" horiz-adv-x="625" 
d="M215 603q79 47 140 99l50 -79q-79 -37 -168 -69zM312 502q-118 0 -191 -76t-73 -182q0 -109 74 -183q74 -72 190 -72q114 0 189 72q76 73 76 183t-77 184t-188 74zM305 448q71 0 120 -51q50 -52 50 -160q0 -89 -40 -142.5t-114 -53.5q-72 0 -121 52q-50 53 -50 162
q0 87 40.5 140t114.5 53z" />
    <glyph glyph-name="ocircumflex" unicode="&#xf4;" horiz-adv-x="625" 
d="M313 704q65 -55 131 -102l-30 -48q-44 31 -101 54q-52 -22 -101 -55l-30 48q53 37 131 103zM312 502q111 0 188 -74t77 -184t-76 -183q-75 -72 -189 -72q-116 0 -190 72q-74 74 -74 183q0 106 73 182t191 76zM305 448q-74 0 -114.5 -53t-40.5 -140q0 -109 50 -162
q49 -52 121 -52q74 0 114 53.5t40 142.5q0 108 -50 160q-49 51 -120 51z" />
    <glyph glyph-name="otilde" unicode="&#xf5;" horiz-adv-x="625" 
d="M170 588l-30 27q31 78 104 78q42 0 83 -29q40 -28 71 -28q40 0 59 34l32 -26q-36 -78 -105 -78q-43 0 -81 29q-38 30 -70 30q-42 0 -63 -37zM312 502q111 0 188 -74t77 -184t-76 -183q-75 -72 -189 -72q-116 0 -190 72q-74 74 -74 183q0 106 73 182t191 76zM305 448
q-74 0 -114.5 -53t-40.5 -140q0 -109 50 -162q49 -52 121 -52q74 0 114 53.5t40 142.5q0 108 -50 160q-49 51 -120 51z" />
    <glyph glyph-name="odieresis" unicode="&#xf6;" horiz-adv-x="625" 
d="M191 674q35 2 50 -25t0 -54.5t-50 -25.5q-26 0 -41.5 15.5t-15.5 37.5t15.5 37t41.5 15zM428 674q36 0 51 -26t0 -52.5t-51 -26.5q-24 0 -40.5 15.5t-16.5 37.5q0 21 16.5 36.5t40.5 15.5zM312 502q111 0 188 -74t77 -184t-76 -183q-75 -72 -189 -72q-116 0 -190 72
q-74 74 -74 183q0 106 73 182t191 76zM305 448q-74 0 -114.5 -53t-40.5 -140q0 -109 50 -162q49 -52 121 -52q74 0 114 53.5t40 142.5q0 108 -50 160q-49 51 -120 51z" />
    <glyph glyph-name="oslash" unicode="&#xf8;" horiz-adv-x="625" 
d="M416 499l97 -1l-36 -50q100 -76 100 -204q0 -110 -76 -183q-75 -72 -189 -72q-62 0 -111 21l-12 -22l-97 -1q31 42 44 62q-88 73 -88 195q0 106 73 182t191 76q49 0 97 -17zM150 255q0 -83 32 -136l1 2l161 257l34 54q-32 16 -73 16q-74 0 -114.5 -53t-40.5 -140zM321 41
q74 0 114 53.5t40 142.5q0 96 -40 148l-8 -13l-161 -255l-32 -52q38 -24 87 -24z" />
    <glyph glyph-name="ugrave" unicode="&#xf9;" horiz-adv-x="602" 
d="M392 603l-22 -49q-88 32 -168 69l50 79q61 -52 140 -99zM531 119l5 -119h-83q-8 41 -11 84q-91 -94 -201 -94q-82 0 -125.5 55t-43.5 149v210l-6 79l105 7q-6 -34 -6 -86v-196q0 -73 25.5 -111t86.5 -38q87 0 164 92v245l-4 87l97 7q-3 -51 -3 -95v-276z" />
    <glyph glyph-name="uacute" unicode="&#xfa;" horiz-adv-x="602" 
d="M338 702l50 -79q-80 -37 -168 -69l-22 49q79 47 140 99zM531 119l5 -119h-83q-8 41 -11 84q-91 -94 -201 -94q-82 0 -125.5 55t-43.5 149v210l-6 79l105 7q-6 -34 -6 -86v-196q0 -73 25.5 -111t86.5 -38q87 0 164 92v245l-4 87l97 7q-3 -51 -3 -95v-276z" />
    <glyph glyph-name="ucircumflex" unicode="&#xfb;" horiz-adv-x="602" 
d="M296 608q-52 -22 -101 -55l-30 48q53 37 131 103q65 -55 131 -102l-30 -48q-44 31 -101 54zM531 119l5 -119h-83q-8 41 -11 84q-91 -94 -201 -94q-82 0 -125.5 55t-43.5 149v210l-6 79l105 7q-6 -34 -6 -86v-196q0 -73 25.5 -111t86.5 -38q87 0 164 92v245l-4 87l97 7
q-3 -51 -3 -95v-276z" />
    <glyph glyph-name="udieresis" unicode="&#xfc;" horiz-adv-x="602" 
d="M174 569q-26 0 -41.5 15.5t-15.5 37.5t15.5 37t41.5 15q35 2 50 -25t0 -54.5t-50 -25.5zM411 569q-24 0 -40.5 15.5t-16.5 37.5q0 21 16.5 36.5t40.5 15.5q36 0 51 -26t0 -52.5t-51 -26.5zM531 119l5 -119h-83q-8 41 -11 84q-91 -94 -201 -94q-82 0 -125.5 55t-43.5 149
v210l-6 79l105 7q-6 -34 -6 -86v-196q0 -73 25.5 -111t86.5 -38q87 0 164 92v245l-4 87l97 7q-3 -51 -3 -95v-276z" />
    <glyph glyph-name="yacute" unicode="&#xfd;" horiz-adv-x="562" 
d="M338 702l50 -79q-80 -37 -168 -69l-22 49q79 47 140 99zM461 484l93 6l-61 -119l-207 -410q-80 -149 -182 -156l-16 63q71 8 131 114l20 38q-35 62 -61 121l-107 228l-56 115l107 8q25 -80 44 -118l121 -259l133 260q36 91 41 109z" />
    <glyph glyph-name="ydieresis" unicode="&#xff;" horiz-adv-x="562" 
d="M174 569q-26 0 -41.5 15.5t-15.5 37.5t15.5 37t41.5 15q35 2 50 -25t0 -54.5t-50 -25.5zM411 569q-24 0 -40.5 15.5t-16.5 37.5q0 21 16.5 36.5t40.5 15.5q36 0 51 -26t0 -52.5t-51 -26.5zM461 484l93 6l-61 -119l-207 -410q-80 -149 -182 -156l-16 63q71 8 131 114
l20 38q-35 62 -61 121l-107 228l-56 115l107 8q25 -80 44 -118l121 -259l133 260q36 91 41 109z" />
    <glyph glyph-name="Gbreve" unicode="&#x11e;" horiz-adv-x="821" 
d="M264 884l40 17q35 -59 107 -59t107 59l40 -17q-18 -50 -56 -78.5t-91 -28.5t-91 28.5t-56 78.5zM660 363l96 4q-3 -37 -3 -105l1 -131q-44 -66 -129.5 -106t-202.5 -40q-163 0 -265 104q-101 104 -101 265q0 92 44 175q42 80 130 134q85 52 195 52q131 0 226 -66l-36 -57
q-74 62 -183 62q-114 0 -190 -87q-77 -88 -77 -202q0 -144 83 -230q82 -85 211 -85q117 0 202 68q3 57 3 137q0 67 -4 108z" />
    <glyph glyph-name="gbreve" unicode="&#x11f;" horiz-adv-x="583" 
d="M145 671l40 17q35 -59 107 -59t107 59l40 -17q-18 -50 -56 -78.5t-91 -28.5t-91 28.5t-56 78.5zM306 26q34 6 74.5 4.5t75.5 -8.5t58 -33t23 -69q0 -68 -68 -107.5t-204 -39.5q-131 0 -219 56l26 49q70 -51 191 -51q80 0 130.5 23t50.5 63q0 30 -20.5 44t-53 14t-72.5 -2
q-18 -2 -55 -5q-67 -7 -104 2q-37 10 -57.5 28.5t-20.5 55.5q0 64 84 98q-88 51 -88 159q0 79 58 134t150 55q102 0 163 -58q50 54 109 54l13 -68q-49 -1 -85 -34q19 -37 19 -79q0 -86 -61 -138q-61 -53 -156 -53q-22 0 -54 5q-59 -23 -59 -62q0 -58 152 -37zM264 444
q-51 -3 -80.5 -43t-27.5 -100q2 -64 37 -98.5t89 -29.5q52 4 79 41t24 99q-3 63 -36 98.5t-85 32.5z" />
    <glyph glyph-name="dotlessi" unicode="&#x131;" horiz-adv-x="254" 
d="M78 483l98 7q-3 -27 -3 -99v-270q0 -88 5 -121h-102q6 33 6 121v271q0 66 -4 91z" />
    <glyph glyph-name="OE" unicode="&#x152;" horiz-adv-x="1237" 
d="M746 362v-305h257q108 0 183 32l-19 -92q-36 3 -144 3h-379l3 70q-89 -85 -232 -85q-161 0 -260 99q-99 100 -99 261q0 163 101 266q100 103 258 103q139 0 234 -84l-3 70h329q59 0 137 5l10 -90q-52 28 -158 28h-218v-231h271l-8 -71q-106 18 -263 21zM418 43
q185 0 232 187v232q-46 195 -238 195q-120 0 -188 -83q-67 -82 -64 -221q3 -145 76 -227q74 -83 182 -83z" />
    <glyph glyph-name="oe" unicode="&#x153;" horiz-adv-x="1026" 
d="M978 264q0 -23 -1 -29h-400q4 -88 51 -136.5t124 -48.5q94 0 164 62l27 -44q-41 -42 -89.5 -61t-116.5 -19q-63 0 -119.5 26t-92.5 74q-78 -99 -213 -99q-116 0 -190 72q-74 74 -74 183q0 106 73 182t191 76q135 0 211 -100q73 101 205 100q115 -1 182.5 -64.5
t67.5 -173.5zM321 41q74 0 114 53.5t40 142.5q0 108 -50 160q-49 51 -120 51q-74 0 -114.5 -53t-40.5 -140q0 -109 50 -162q49 -52 121 -52zM579 289h305q0 68 -42 113q-40 46 -110 46q-63 0 -104 -43t-49 -116z" />
    <glyph glyph-name="Scedilla" unicode="&#x15e;" horiz-adv-x="739" 
d="M687 204q0 -94 -77 -153q-76 -58 -202 -64l-10 -30q35 -2 61 -23.5t26 -52.5q0 -39 -28.5 -62t-74.5 -23q-57 0 -96 36l18 37q37 -23 71 -19t34 33q0 21 -22.5 34t-58.5 15l24 55q-91 6 -173 44q-81 37 -125 97l36 53q43 -58 122 -93q77 -34 161 -34q106 0 160 36.5
t54 95.5q0 39 -22 66q-15 20 -59 38q-14 6 -39 12q-29 7 -40 8q-8 2 -43 7l-41 7q-82 13 -141 34q-57 21 -86.5 58.5t-33.5 100.5q0 88 76 142q76 55 203 55q70 0 128 -19q89 -27 125 -66l-28 -48q-35 30 -92 51t-119 21q-106 0 -155 -40q-49 -39 -49 -86q0 -61 75 -85
q33 -12 162 -30q90 -13 154 -36q60 -22 90.5 -62.5t34.5 -109.5z" />
    <glyph glyph-name="scedilla" unicode="&#x15f;" horiz-adv-x="564" 
d="M518 146q0 -73 -56 -114q-55 -38 -141 -46l-10 -29q35 -2 61 -23.5t26 -52.5q0 -39 -28.5 -62t-74.5 -23q-57 0 -96 36l18 37q37 -23 71 -19t34 33q0 21 -22.5 34t-58.5 15l23 54q-59 4 -124 28q-60 22 -95 57l29 50q83 -76 209 -76q66 0 105 23t39 60q0 43 -44 58
q-22 10 -46 13l-26 4q-20 5 -56 8q-110 16 -156.5 46t-46.5 94q0 66 59 108q59 43 153 43q140 0 228 -75l-29 -46q-80 62 -186 62q-61 0 -99.5 -24t-38.5 -59q0 -31 38 -48q6 -2 59 -13l36 -4l37 -4q107 -13 158 -46t51 -99z" />
    <glyph glyph-name="Scaron" unicode="&#x160;" horiz-adv-x="739" 
d="M238 860l30 48q49 -33 101 -55q57 23 101 54l30 -48q-66 -47 -131 -102q-78 66 -131 103zM614 629l-28 -48q-35 30 -92 51t-119 21q-106 0 -155 -40q-49 -39 -49 -86q0 -61 75 -85q33 -12 162 -30q90 -13 154 -36q60 -22 90.5 -62.5t34.5 -109.5q0 -99 -85 -159
q-86 -59 -220 -59q-97 0 -190 38q-89 39 -138 104l36 53q43 -58 122 -93q77 -34 161 -34q106 0 160 36.5t54 95.5q0 39 -22 66q-15 20 -59 38q-14 6 -39 12q-29 7 -40 8q-8 2 -43 7l-41 7q-82 13 -141 34q-57 21 -86.5 58.5t-33.5 100.5q0 88 76 142q76 55 203 55
q70 0 128 -19q89 -27 125 -66z" />
    <glyph glyph-name="scaron" unicode="&#x161;" horiz-adv-x="564" 
d="M151 647l30 48q49 -33 101 -55q57 23 101 54l30 -48q-66 -47 -131 -102q-78 66 -131 103zM264 502q140 0 228 -75l-29 -46q-80 62 -186 62q-61 0 -99.5 -24t-38.5 -59q0 -31 38 -48q6 -2 59 -13l36 -4l37 -4q107 -13 158 -46t51 -99q0 -80 -66 -121q-64 -40 -164 -40
q-65 0 -136 24q-70 25 -107 62l29 50q83 -76 209 -76q66 0 105 23t39 60q0 43 -44 58q-22 10 -46 13l-26 4q-20 5 -56 8q-110 16 -156.5 46t-46.5 94q0 66 59 108q59 43 153 43z" />
    <glyph glyph-name="Wcircumflex" unicode="&#x174;" horiz-adv-x="1002" 
d="M501 821q-52 -22 -101 -55l-30 48q53 37 131 103q65 -55 131 -102l-30 -48q-44 31 -101 54zM889 697l92 6q-22 -47 -60 -151l-162 -447q-21 -60 -30 -105h-20h-81q-4 18 -40 113l-90 246l-87 -254q-25 -73 -31 -105h-10h-88q-15 63 -34 113l-172 458q-32 81 -54 126
l119 7q12 -66 33 -122l88 -237q52 -137 83 -248q25 85 82 250l37 106l-43 118q-24 69 -49 126l110 6q11 -57 44 -147l78 -211q61 -169 83 -252l87 254l75 214q30 84 40 136z" />
    <glyph glyph-name="wcircumflex" unicode="&#x175;" horiz-adv-x="851" 
d="M430 608q-52 -22 -101 -55l-30 48q53 37 131 103q65 -55 131 -102l-30 -48q-44 31 -101 54zM748 484l87 6q-24 -47 -54 -119l-88 -227q-28 -82 -43 -144h-82q-15 64 -44 137l-90 232l-5 13l-4 -11l-88 -227q-31 -78 -46 -144h-88q-10 47 -41 137l-91 232q-19 51 -54 115
l107 6q23 -78 39 -116l40 -101q40 -97 62 -155q26 84 50 148l40 109q13 34 35 109l87 6l-1 -3l6 3q16 -59 38 -116q64 -157 96 -260q26 86 53 152l41 109q23 58 38 109z" />
    <glyph glyph-name="Ycircumflex" unicode="&#x176;" horiz-adv-x="701" 
d="M366 821q-52 -22 -101 -55l-30 48q53 37 131 103q65 -55 131 -102l-30 -48q-44 31 -101 54zM581 697l99 6q-31 -44 -72 -115l-251 -436q-43 -76 -73 -152h-108q78 107 141 218l9 16l-83 128l-144 227q-38 58 -78 107l127 8q18 -45 54 -102l77 -123l31 -50q20 -31 67 -107
l156 272q35 62 48 103z" />
    <glyph glyph-name="ycircumflex" unicode="&#x177;" horiz-adv-x="562" 
d="M296 608q-52 -22 -101 -55l-30 48q53 37 131 103q65 -55 131 -102l-30 -48q-44 31 -101 54zM461 484l93 6l-61 -119l-207 -410q-80 -149 -182 -156l-16 63q71 8 131 114l20 38q-35 62 -61 121l-107 228l-56 115l107 8q25 -80 44 -118l121 -259l133 260q36 91 41 109z" />
    <glyph glyph-name="Ydieresis" unicode="&#x178;" horiz-adv-x="701" 
d="M244 782q-26 0 -41.5 15.5t-15.5 37.5t15.5 37t41.5 15q35 2 50 -25t0 -54.5t-50 -25.5zM481 782q-24 0 -40.5 15.5t-16.5 37.5q0 21 16.5 36.5t40.5 15.5q36 0 51 -26.5t0 -52.5t-51 -26zM581 697l99 6q-31 -44 -72 -115l-251 -436q-43 -76 -73 -152h-108
q78 107 141 218l9 16l-83 128l-144 227q-38 58 -78 107l127 8q18 -45 54 -102l77 -123l31 -50q20 -31 67 -107l156 272q35 62 48 103z" />
    <glyph glyph-name="Zcaron" unicode="&#x17d;" horiz-adv-x="772" 
d="M487 907l30 -48q-66 -47 -131 -102q-78 66 -131 103l30 48q49 -33 101 -55q57 23 101 54zM551 474l-377 -419h323q86 0 138 11q48 12 90 41l-24 -112q-78 5 -144 5h-495l-4 51q52 71 148 177l390 415h-293q-131 0 -205 -57l22 120q67 -6 134 -6h418l9 -90
q-78 -78 -130 -136z" />
    <glyph glyph-name="zcaron" unicode="&#x17e;" horiz-adv-x="570" 
d="M386 694l30 -48q-66 -47 -131 -102q-78 66 -131 103l30 48q49 -33 101 -55q57 23 101 54zM500 414l-336 -358h210q83 0 145 25l-4 -85q-49 4 -184 4h-276l-4 64l370 369h-224q-71 0 -121 -19l7 78q57 -5 138 -5h274z" />
    <glyph glyph-name="circumflex" unicode="&#x2c6;" horiz-adv-x="362" 
d="M181 704q65 -55 131 -102l-30 -48q-44 31 -101 54q-52 -22 -101 -55l-30 48q53 37 131 103z" />
    <glyph glyph-name="caron" unicode="&#x2c7;" horiz-adv-x="362" 
d="M50 647l30 48q49 -33 101 -55q57 23 101 54l30 -48q-66 -47 -131 -102q-78 66 -131 103z" />
    <glyph glyph-name="breve" unicode="&#x2d8;" horiz-adv-x="426" 
d="M320 688l40 -17q-18 -50 -56 -78.5t-91 -28.5t-91 28.5t-56 78.5l40 17q35 -59 107 -59t107 59z" />
    <glyph glyph-name="ring" unicode="&#x2da;" horiz-adv-x="314" 
d="M53 636q0 41 29.5 66t74.5 25t74.5 -24t29.5 -62q0 -41 -29.5 -66t-74.5 -25t-74.5 24t-29.5 62zM206 640q2 27 -24 38t-51.5 -1t-22.5 -39q0 -20 14.5 -32t35.5 -12t34.5 13.5t13.5 32.5z" />
    <glyph glyph-name="tilde" unicode="&#x2dc;" horiz-adv-x="481" 
d="M96 588l-30 27q31 78 104 78q42 0 83 -29q40 -28 71 -28q40 0 59 34l32 -26q-36 -78 -105 -78q-43 0 -81 29q-37 30 -70 30q-42 0 -63 -37z" />
    <glyph glyph-name="Wgrave" unicode="&#x1e80;" horiz-adv-x="1002" 
d="M597 816l-22 -49q-89 31 -168 69l50 79q61 -52 140 -99zM889 697l92 6q-22 -47 -60 -151l-162 -447q-21 -60 -30 -105h-20h-81q-4 18 -40 113l-90 246l-87 -254q-25 -73 -31 -105h-10h-88q-15 63 -34 113l-172 458q-32 81 -54 126l119 7q12 -66 33 -122l88 -237
q52 -137 83 -248q25 85 82 250l37 106l-43 118q-24 69 -49 126l110 6q11 -57 44 -147l78 -211q61 -169 83 -252l87 254l75 214q30 84 40 136z" />
    <glyph glyph-name="wgrave" unicode="&#x1e81;" horiz-adv-x="851" 
d="M526 603l-22 -49q-88 32 -168 69l50 79q61 -52 140 -99zM748 484l87 6q-24 -47 -54 -119l-88 -227q-28 -82 -43 -144h-82q-15 64 -44 137l-90 232l-5 13l-4 -11l-88 -227q-31 -78 -46 -144h-88q-10 47 -41 137l-91 232q-19 51 -54 115l107 6q23 -78 39 -116l40 -101
q40 -97 62 -155q26 84 50 148l40 109q13 34 35 109l87 6l-1 -3l6 3q16 -59 38 -116q64 -157 96 -260q26 86 53 152l41 109q23 58 38 109z" />
    <glyph glyph-name="Wacute" unicode="&#x1e82;" horiz-adv-x="1002" 
d="M543 915l50 -79q-79 -38 -168 -69l-22 49q79 47 140 99zM889 697l92 6q-22 -47 -60 -151l-162 -447q-21 -60 -30 -105h-20h-81q-4 18 -40 113l-90 246l-87 -254q-25 -73 -31 -105h-10h-88q-15 63 -34 113l-172 458q-32 81 -54 126l119 7q12 -66 33 -122l88 -237
q52 -137 83 -248q25 85 82 250l37 106l-43 118q-24 69 -49 126l110 6q11 -57 44 -147l78 -211q61 -169 83 -252l87 254l75 214q30 84 40 136z" />
    <glyph glyph-name="wacute" unicode="&#x1e83;" horiz-adv-x="851" 
d="M472 702l50 -79q-80 -37 -168 -69l-22 49q79 47 140 99zM748 484l87 6q-24 -47 -54 -119l-88 -227q-28 -82 -43 -144h-82q-15 64 -44 137l-90 232l-5 13l-4 -11l-88 -227q-31 -78 -46 -144h-88q-10 47 -41 137l-91 232q-19 51 -54 115l107 6q23 -78 39 -116l40 -101
q40 -97 62 -155q26 84 50 148l40 109q13 34 35 109l87 6l-1 -3l6 3q16 -59 38 -116q64 -157 96 -260q26 86 53 152l41 109q23 58 38 109z" />
    <glyph glyph-name="Wdieresis" unicode="&#x1e84;" horiz-adv-x="1002" 
d="M379 782q-26 0 -41.5 15.5t-15.5 37.5t15.5 37t41.5 15q35 2 50 -25t0 -54.5t-50 -25.5zM616 782q-24 0 -40.5 15.5t-16.5 37.5q0 21 16.5 36.5t40.5 15.5q36 0 51 -26.5t0 -52.5t-51 -26zM889 697l92 6q-22 -47 -60 -151l-162 -447q-21 -60 -30 -105h-20h-81
q-4 18 -40 113l-90 246l-87 -254q-25 -73 -31 -105h-10h-88q-15 63 -34 113l-172 458q-32 81 -54 126l119 7q12 -66 33 -122l88 -237q52 -137 83 -248q25 85 82 250l37 106l-43 118q-24 69 -49 126l110 6q11 -57 44 -147l78 -211q61 -169 83 -252l87 254l75 214
q30 84 40 136z" />
    <glyph glyph-name="wdieresis" unicode="&#x1e85;" horiz-adv-x="851" 
d="M308 569q-26 0 -41.5 15.5t-15.5 37.5t15.5 37t41.5 15q35 2 50 -25t0 -54.5t-50 -25.5zM545 569q-24 0 -40.5 15.5t-16.5 37.5q0 21 16.5 36.5t40.5 15.5q36 0 51 -26t0 -52.5t-51 -26.5zM748 484l87 6q-24 -47 -54 -119l-88 -227q-28 -82 -43 -144h-82q-15 64 -44 137
l-90 232l-5 13l-4 -11l-88 -227q-31 -78 -46 -144h-88q-10 47 -41 137l-91 232q-19 51 -54 115l107 6q23 -78 39 -116l40 -101q40 -97 62 -155q26 84 50 148l40 109q13 34 35 109l87 6l-1 -3l6 3q16 -59 38 -116q64 -157 96 -260q26 86 53 152l41 109q23 58 38 109z" />
    <glyph glyph-name="Ygrave" unicode="&#x1ef2;" horiz-adv-x="701" 
d="M462 816l-22 -49q-88 31 -168 69l50 79q61 -52 140 -99zM581 697l99 6q-31 -44 -72 -115l-251 -436q-43 -76 -73 -152h-108q78 107 141 218l9 16l-83 128l-144 227q-38 58 -78 107l127 8q18 -45 54 -102l77 -123l31 -50q20 -31 67 -107l156 272q35 62 48 103z" />
    <glyph glyph-name="ygrave" unicode="&#x1ef3;" horiz-adv-x="562" 
d="M392 603l-22 -49q-88 32 -168 69l50 79q61 -52 140 -99zM461 484l93 6l-61 -119l-207 -410q-80 -149 -182 -156l-16 63q71 8 131 114l20 38q-35 62 -61 121l-107 228l-56 115l107 8q25 -80 44 -118l121 -259l133 260q36 91 41 109z" />
    <glyph glyph-name="endash" unicode="&#x2013;" horiz-adv-x="666" 
d="M57 291h553l-3 -67q-261 12 -551 12z" />
    <glyph glyph-name="emdash" unicode="&#x2014;" horiz-adv-x="970" 
d="M57 291h857l-3 -67q-387 12 -855 12z" />
    <glyph glyph-name="quoteleft" unicode="&#x2018;" horiz-adv-x="207" 
d="M104 577q-27 0 -44 18.5t-17 46.5q0 92 84 125l23 -32q-35 -12 -31 -46q19 -3 32 -18.5t13 -35.5q0 -24 -17 -41t-43 -17z" />
    <glyph glyph-name="quoteright" unicode="&#x2019;" horiz-adv-x="207" 
d="M103 756q27 0 44 -18.5t17 -46.5q0 -92 -84 -125l-23 32q35 12 31 46q-19 3 -32 19t-13 35q0 24 17 41t43 17z" />
    <glyph glyph-name="quotesinglbase" unicode="&#x201a;" horiz-adv-x="207" 
d="M103 107q27 0 44 -18.5t17 -46.5q0 -92 -84 -125l-23 32q35 12 31 46q-19 3 -32 19t-13 35q0 24 17 41t43 17z" />
    <glyph glyph-name="quotedblleft" unicode="&#x201c;" horiz-adv-x="382" 
d="M104 577q-27 0 -44 18.5t-17 46.5q0 92 84 125l23 -32q-35 -12 -31 -46q19 -3 32 -18.5t13 -35.5q0 -24 -17 -41t-43 -17zM279 577q-27 0 -44 18.5t-17 46.5q0 92 84 125l23 -32q-35 -12 -31 -46q19 -3 32 -18.5t13 -35.5q0 -24 -17 -41t-43 -17z" />
    <glyph glyph-name="quotedblright" unicode="&#x201d;" horiz-adv-x="382" 
d="M103 756q27 0 44 -18.5t17 -46.5q0 -92 -84 -125l-23 32q35 12 31 46q-19 3 -32 19t-13 35q0 24 17 41t43 17zM278 756q27 0 44 -18.5t17 -46.5q0 -92 -84 -125l-23 32q35 12 31 46q-19 3 -32 19t-13 35q0 24 17 41t43 17z" />
    <glyph glyph-name="quotedblbase" unicode="&#x201e;" horiz-adv-x="382" 
d="M103 108q27 0 44 -18.5t17 -46.5q0 -92 -84 -125l-23 32q35 12 31 46q-19 3 -32 18.5t-13 35.5q0 24 17 41t43 17zM278 108q27 0 44 -18.5t17 -46.5q0 -92 -84 -125l-23 32q35 12 31 46q-19 3 -32 18.5t-13 35.5q0 24 17 41t43 17z" />
    <glyph glyph-name="dagger" unicode="&#x2020;" horiz-adv-x="586" 
d="M332 505h198l-3 -67q-100 5 -195 8v-491q0 -88 5 -121h-85q6 33 6 121v492q-117 3 -202 3l1 55h201v155q0 66 -4 91l81 7q-3 -27 -3 -99v-154z" />
    <glyph glyph-name="daggerdbl" unicode="&#x2021;" horiz-adv-x="600" 
d="M332 446v-276h198l-3 -67q-100 5 -195 8v-156q0 -88 5 -121h-85q6 33 6 121v157q-117 3 -202 3l1 55h201v277q-117 3 -202 3l1 55h201v155q0 66 -4 91l81 7q-3 -27 -3 -99v-154h198l-3 -67q-100 5 -195 8z" />
    <glyph glyph-name="bullet" unicode="&#x2022;" horiz-adv-x="440" 
d="M329 333q0 -43 -31 -74.5t-77 -31.5q-47 0 -78.5 31.5t-31.5 74.5q0 44 31.5 75.5t78.5 31.5t77.5 -31.5t30.5 -75.5z" />
    <glyph glyph-name="ellipsis" unicode="&#x2026;" horiz-adv-x="687" 
d="M80 89q17 18 43 18t42 -18q17 -17 17 -40t-17 -41q-16 -17 -42 -17t-43 17q-17 18 -17 41t17 40zM301 89q17 18 43 18t42 -18q17 -17 17 -40t-17 -41q-16 -17 -42 -17t-43 17q-17 18 -17 41t17 40zM522 89q17 18 43 18t42 -18q17 -17 17 -40t-17 -41q-16 -17 -42 -17
t-43 17q-17 18 -17 41t17 40z" />
    <glyph glyph-name="perthousand" unicode="&#x2030;" horiz-adv-x="1152" 
d="M360 561q0 -62 -46 -107q-45 -45 -111 -45t-112 44q-45 43 -45 106q0 61 45 104q46 44 112 44q68 0 112 -43q45 -42 45 -103zM601 707l89 -14q-72 -89 -96 -120l-340 -454q-62 -83 -87 -123l-86 21q47 55 101 126l338 449q47 63 81 115zM200 651q-35 0 -54.5 -25
t-19.5 -65q0 -43 22 -69.5t58 -26.5q34 0 54 26.5t20 67.5q0 43 -21.5 67.5t-58.5 24.5zM740 146q0 -62 -46 -107q-45 -45 -111 -45t-112 44q-45 44 -45 106q0 60 45 104q46 44 112 44q68 0 112 -43q45 -42 45 -103zM1106 146q0 -62 -46 -107q-45 -45 -111 -45t-112 44
q-45 43 -45 106q0 60 45 104q46 44 112 44q68 0 112 -43q45 -42 45 -103zM580 236q-35 0 -54.5 -25t-19.5 -65q0 -43 22 -69.5t58 -26.5q34 0 54 26.5t20 67.5q0 43 -21.5 67.5t-58.5 24.5zM946 236q-35 0 -54.5 -25t-19.5 -65q0 -43 22 -69.5t58 -26.5q34 0 54 26.5
t20 67.5q0 43 -21.5 67.5t-58.5 24.5z" />
    <glyph glyph-name="guilsinglleft" unicode="&#x2039;" horiz-adv-x="395" 
d="M264 468l65 -21q-22 -26 -41 -51l-107 -149q15 -23 95 -133q8 -11 53 -67l-65 -21q-21 29 -51 62l-147 159l151 162q36 42 47 59z" />
    <glyph glyph-name="guilsinglright" unicode="&#x203a;" horiz-adv-x="395" 
d="M66 447l65 21q11 -17 47 -59l151 -162l-147 -159q-30 -33 -51 -62l-65 21q45 56 53 67q80 110 95 133l-107 149q-19 25 -41 51z" />
    <glyph glyph-name="fraction" unicode="&#x2044;" horiz-adv-x="701" 
d="M577 722l100 2q-63 -76 -96 -120l-369 -494q-62 -82 -87 -123h-102q47 55 101 126l372 494q48 62 81 115z" />
    <glyph glyph-name="Euro" unicode="&#x20ac;" horiz-adv-x="794" 
d="M713 158l30 -47q-96 -121 -266 -121q-132 0 -222 66q-90 67 -118 175l-97 1l10 55h77q-3 22 -3 46q0 22 5 55l-89 1l10 55h93q35 101 122 161q89 63 213 63q152 0 247 -86l-33 -55q-64 81 -200 81q-86 0 -153 -45t-98 -119h313l-13 -67q-78 5 -316 10q-4 -19 -4 -48
q0 -32 4 -52h299l-13 -67q-65 4 -273 9q28 -81 95 -127t156 -46q76 0 127.5 24t96.5 78z" />
    <glyph glyph-name="trademark" unicode="&#x2122;" horiz-adv-x="693" 
d="M102 700h129l48 3l7 -61q-34 9 -69 9h-13v-107q0 -51 2 -93h-76q2 42 2 92v108h-16q-34 0 -70 -9l7 61q48 -3 49 -3zM627 451h-74q1 13 1 54l-3 95l-45 -57l-40 -53q-6 9 -22.5 30t-18.5 24l-38 49q-2 -74 -2 -88q0 -28 2 -54h-56q2 48 2 54l3 153v42l57 2q4 -6 22 -31
l65 -82l64 79l22 32l55 2v-35l4 -162q0 -28 2 -54z" />
    <glyph glyph-name="minus" unicode="&#x2212;" horiz-adv-x="586" 
d="M57 335h473l-3 -67q-133 9 -471 12z" />
    <glyph glyph-name="notequal" unicode="&#x2260;" horiz-adv-x="600" 
d="M355 359l-43 -111h218l-3 -67q-82 5 -238 9l-27 -71q-37 -97 -50 -142h-87q28 60 62 149l25 65l-156 2l1 55h177l44 113q-128 3 -222 3l1 55h243l34 87q36 99 46 133l89 4q-38 -86 -59 -141l-32 -83h152l-3 -67q-30 2 -172 7z" />
    <glyph glyph-name="lessequal" unicode="&#x2264;" horiz-adv-x="586" 
d="M509 548l19 -62q-44 -10 -97 -30l-254 -93l265 -98q41 -16 86 -28l-22 -60q-21 10 -80 31l-367 127l-3 59l357 118q69 24 96 36zM57 128h473l-3 -67q-133 9 -471 12z" />
    <glyph glyph-name="greaterequal" unicode="&#x2265;" horiz-adv-x="586" 
d="M75 548q27 -12 96 -36l357 -118l-3 -59l-367 -127q-59 -21 -80 -31l-22 60q45 12 86 28l265 98l-254 93q-53 20 -97 30zM530 128h-473l-1 -55q338 -3 471 -12z" />
    <glyph glyph-name="NULL" horiz-adv-x="0" 
 />
    <glyph glyph-name="CR" horiz-adv-x="333" 
 />
    </font>
</defs>
</svg>
